SplineFontDB: 3.2
FontName: FdSymbolF-Bold
FullName: FdSymbolF-Bold
FamilyName: FdSymbolF
Weight: Bold
Copyright: Copyright (c) 2012, Michael Ummels. This Font Software is licensed under the SIL Open Font License, Version 1.1.
Version: 1.008
ItalicAngle: 0
UnderlinePosition: -100
UnderlineWidth: 50
Ascent: 800
Descent: 200
InvalidEm: 0
LayerCount: 2
Layer: 0 0 "Back" 1
Layer: 1 0 "Fore" 0
OS2Version: 0
OS2_WeightWidthSlopeOnly: 0
OS2_UseTypoMetrics: 0
CreationTime: 1739777140
ModificationTime: 1739777140
OS2TypoAscent: 0
OS2TypoAOffset: 1
OS2TypoDescent: 0
OS2TypoDOffset: 1
OS2TypoLinegap: 0
OS2WinAscent: 0
OS2WinAOffset: 1
OS2WinDescent: 0
OS2WinDOffset: 1
HheadAscent: 0
HheadAOffset: 1
HheadDescent: 0
HheadDOffset: 1
OS2Vendor: 'PfEd'
DEI: 91125
Encoding: Custom
UnicodeInterp: none
NameList: AGL For New Fonts
DisplaySize: -48
AntiAlias: 1
FitToEm: 0
BeginPrivate: 2
BlueValues 31 [-10 0 546 556 707 717 754 764]
OtherBlues 11 [-230 -220]
EndPrivate
BeginChars: 256 228

StartChar: parenleft
Encoding: 0 40 0
Width: 475
Flags: HW
HStem: -230 21G<231 327>
VStem: 97 100<115.003 484.997>
LayerCount: 2
Fore
SplineSet
378 -159 m 1
 307 -230 l 1
 155 -102 97 100 97 300 c 0
 97 500 155 702 307 830 c 1
 378 759 l 1
 246 648 197 473 197 300 c 0
 197 127 246 -48 378 -159 c 1
EndSplineSet
EndChar

StartChar: parenleft.big1
Encoding: 1 -1 1
Width: 481
Flags: HW
VStem: 97 100<97.3437 502.656>
LayerCount: 2
Fore
SplineSet
384 -212 m 1
 313 -283 l 1
 152 -138 97 83 97 300 c 0
 97 517 152 738 313 883 c 1
 384 812 l 1
 244 684 197 490 197 300 c 0
 197 110 244 -84 384 -212 c 1
EndSplineSet
EndChar

StartChar: parenleft.big2
Encoding: 2 -1 2
Width: 499
Flags: HW
VStem: 97 100<37.3823 562.618>
LayerCount: 2
Fore
SplineSet
402 -371 m 1
 331 -442 l 1
 146 -247 97 31 97 300 c 0
 97 569 146 847 331 1042 c 1
 402 971 l 1
 238 792 197 543 197 300 c 0
 197 57 238 -192 402 -371 c 1
EndSplineSet
EndChar

StartChar: parenleft.big3
Encoding: 3 -1 3
Width: 523
Flags: HW
VStem: 97 100<40.0357 559.964>
LayerCount: 2
Fore
SplineSet
426 -583 m 1
 355 -654 l 1
 141 -390 97 -40 97 300 c 0
 97 640 141 990 355 1254 c 1
 426 1183 l 1
 234 936 197 613 197 300 c 0
 197 -13 234 -336 426 -583 c 1
EndSplineSet
EndChar

StartChar: parenleft.big4
Encoding: 4 -1 4
Width: 559
Flags: HW
VStem: 97 100<46.1525 553.848>
LayerCount: 2
Fore
SplineSet
462 -901 m 1
 391 -972 l 1
 137 -605 97 -146 97 300 c 0
 97 746 137 1205 391 1572 c 1
 462 1501 l 1
 230 1151 197 719 197 300 c 0
 197 -119 230 -551 462 -901 c 1
EndSplineSet
EndChar

StartChar: parenleft.big5
Encoding: 5 -1 5
Width: 595
Flags: HW
VStem: 97 100<46.6552 553.345>
LayerCount: 2
Fore
SplineSet
498 -1219 m 1
 427 -1290 l 1
 135 -820 97 -252 97 300 c 0
 97 852 135 1420 427 1890 c 1
 498 1819 l 1
 229 1366 197 826 197 300 c 0
 197 -226 229 -766 498 -1219 c 1
EndSplineSet
EndChar

StartChar: parenright
Encoding: 6 41 6
Width: 475
Flags: HW
HStem: -230 21G<148 244>
VStem: 278 100<115.003 484.997>
LayerCount: 2
Fore
SplineSet
97 -159 m 1
 229 -48 278 127 278 300 c 0
 278 473 229 648 97 759 c 1
 168 830 l 1
 320 702 378 500 378 300 c 0
 378 100 320 -102 168 -230 c 1
 97 -159 l 1
EndSplineSet
EndChar

StartChar: parenright.big1
Encoding: 7 -1 7
Width: 481
Flags: HW
VStem: 284 100<97.3437 502.656>
LayerCount: 2
Fore
SplineSet
97 -212 m 1
 237 -84 284 110 284 300 c 0
 284 490 237 684 97 812 c 1
 168 883 l 1
 329 738 384 517 384 300 c 0
 384 83 329 -138 168 -283 c 1
 97 -212 l 1
EndSplineSet
EndChar

StartChar: parenright.big2
Encoding: 8 -1 8
Width: 499
Flags: HW
VStem: 302 100<37.3823 562.618>
LayerCount: 2
Fore
SplineSet
97 -371 m 1
 261 -192 302 57 302 300 c 0
 302 543 261 792 97 971 c 1
 168 1042 l 1
 353 847 402 569 402 300 c 0
 402 31 353 -247 168 -442 c 1
 97 -371 l 1
EndSplineSet
EndChar

StartChar: parenright.big3
Encoding: 9 -1 9
Width: 523
Flags: HW
VStem: 326 100<40.0357 559.964>
LayerCount: 2
Fore
SplineSet
97 -583 m 1
 289 -336 326 -13 326 300 c 0
 326 613 289 936 97 1183 c 1
 168 1254 l 1
 382 990 426 640 426 300 c 0
 426 -40 382 -390 168 -654 c 1
 97 -583 l 1
EndSplineSet
EndChar

StartChar: parenright.big4
Encoding: 10 -1 10
Width: 559
Flags: HW
VStem: 362 100<46.1525 553.848>
LayerCount: 2
Fore
SplineSet
97 -901 m 1
 329 -551 362 -119 362 300 c 0
 362 719 329 1151 97 1501 c 1
 168 1572 l 1
 422 1205 462 746 462 300 c 0
 462 -146 422 -605 168 -972 c 1
 97 -901 l 1
EndSplineSet
EndChar

StartChar: parenright.big5
Encoding: 11 -1 11
Width: 595
Flags: HW
VStem: 398 100<46.6552 553.345>
LayerCount: 2
Fore
SplineSet
97 -1219 m 1
 366 -766 398 -226 398 300 c 0
 398 826 366 1366 97 1819 c 1
 168 1890 l 1
 460 1420 498 852 498 300 c 0
 498 -252 460 -820 168 -1290 c 1
 97 -1219 l 1
EndSplineSet
EndChar

StartChar: uni239B
Encoding: 12 9115 12
Width: 595
Flags: HW
VStem: 93 100<-545 -198.146>
LayerCount: 2
Fore
SplineSet
193 -545 m 1
 93 -545 l 1
 93 -445 l 2
 93 98 130 657 415 1120 c 1
 502 1070 l 1
 227 621 193 80 193 -445 c 2
 193 -545 l 1
EndSplineSet
EndChar

StartChar: uni239E
Encoding: 13 9118 13
Width: 595
Flags: HW
VStem: 402 100<-545 -198.146>
LayerCount: 2
Fore
SplineSet
402 -545 m 1
 402 -445 l 2
 402 80 368 621 93 1070 c 1
 180 1120 l 1
 465 657 502 98 502 -445 c 2
 502 -545 l 1
 402 -545 l 1
EndSplineSet
EndChar

StartChar: uni239D
Encoding: 14 9117 14
Width: 595
Flags: HW
VStem: 93 100<798.146 1145>
LayerCount: 2
Fore
SplineSet
502 -470 m 1
 415 -520 l 1
 130 -57 93 502 93 1045 c 2
 93 1145 l 1
 193 1145 l 1
 193 1045 l 2
 193 520 227 -21 502 -470 c 1
EndSplineSet
EndChar

StartChar: uni23A0
Encoding: 15 9120 15
Width: 595
Flags: HW
VStem: 402 100<798.146 1145>
LayerCount: 2
Fore
SplineSet
93 -470 m 1
 368 -21 402 520 402 1045 c 2
 402 1145 l 1
 502 1145 l 1
 502 1045 l 2
 502 502 465 -57 180 -520 c 1
 93 -470 l 1
EndSplineSet
EndChar

StartChar: uni239C
Encoding: 16 9116 16
Width: 595
Flags: HW
VStem: 97 100<91 509>
LayerCount: 2
Fore
SplineSet
197 509 m 1
 197 91 l 1
 97 91 l 1
 97 509 l 1
 197 509 l 1
EndSplineSet
EndChar

StartChar: uni239F
Encoding: 17 9119 17
Width: 595
Flags: HW
VStem: 398 100<91 509>
LayerCount: 2
Fore
SplineSet
398 509 m 1
 498 509 l 1
 498 91 l 1
 398 91 l 1
 398 509 l 1
EndSplineSet
EndChar

StartChar: bracketleft
Encoding: 18 91 18
Width: 460
Flags: HW
HStem: -230 100<190 370> 730 100<190 370>
VStem: 90 280<-230 -130 730 830> 90 100<-130 730>
LayerCount: 2
Fore
SplineSet
190 730 m 1xd0
 190 -130 l 1xd0
 370 -130 l 1
 370 -230 l 1
 90 -230 l 1
 90 830 l 1
 370 830 l 1
 370 730 l 1xe0
 190 730 l 1xd0
EndSplineSet
EndChar

StartChar: bracketleft.big1
Encoding: 19 -1 19
Width: 472
Flags: HW
HStem: -336 100<190 382> 836 100<190 382>
VStem: 90 292<-336 -236 836 936> 90 100<-236 836>
LayerCount: 2
Fore
SplineSet
190 836 m 1xd0
 190 -236 l 1xd0
 382 -236 l 1
 382 -336 l 1
 90 -336 l 1
 90 936 l 1
 382 936 l 1
 382 836 l 1xe0
 190 836 l 1xd0
EndSplineSet
EndChar

StartChar: bracketleft.big2
Encoding: 20 -1 20
Width: 490
Flags: HW
HStem: -495 100<190 400> 995 100<190 400>
VStem: 90 100<-395 995>
LayerCount: 2
Fore
SplineSet
190 995 m 1
 190 -395 l 1
 400 -395 l 1
 400 -495 l 1
 90 -495 l 1
 90 1095 l 1
 400 1095 l 1
 400 995 l 1
 190 995 l 1
EndSplineSet
EndChar

StartChar: bracketleft.big3
Encoding: 21 -1 21
Width: 508
Flags: HW
HStem: -654 100<190 418> 1154 100<190 418>
VStem: 90 100<-554 1154>
LayerCount: 2
Fore
SplineSet
190 1154 m 1
 190 -554 l 1
 418 -554 l 1
 418 -654 l 1
 90 -654 l 1
 90 1254 l 1
 418 1254 l 1
 418 1154 l 1
 190 1154 l 1
EndSplineSet
EndChar

StartChar: bracketleft.big4
Encoding: 22 -1 22
Width: 544
Flags: HW
HStem: -972 100<190 454> 1472 100<190 454>
VStem: 90 100<-872 1472>
LayerCount: 2
Fore
SplineSet
190 1472 m 1
 190 -872 l 1
 454 -872 l 1
 454 -972 l 1
 90 -972 l 1
 90 1572 l 1
 454 1572 l 1
 454 1472 l 1
 190 1472 l 1
EndSplineSet
EndChar

StartChar: bracketleft.big5
Encoding: 23 -1 23
Width: 580
Flags: HW
HStem: -1290 100<190 490> 1790 100<190 490>
VStem: 90 100<-1190 1790>
LayerCount: 2
Fore
SplineSet
190 1790 m 1
 190 -1190 l 1
 490 -1190 l 1
 490 -1290 l 1
 90 -1290 l 1
 90 1890 l 1
 490 1890 l 1
 490 1790 l 1
 190 1790 l 1
EndSplineSet
EndChar

StartChar: bracketright
Encoding: 24 93 24
Width: 460
Flags: HW
HStem: -230 100<90 270> 730 100<90 270>
VStem: 90 280<-230 -130 730 830> 270 100<-130 730>
LayerCount: 2
Fore
SplineSet
370 830 m 1xe0
 370 -230 l 1
 90 -230 l 1
 90 -130 l 1xe0
 270 -130 l 1
 270 730 l 1xd0
 90 730 l 1
 90 830 l 1
 370 830 l 1xe0
EndSplineSet
EndChar

StartChar: bracketright.big1
Encoding: 25 -1 25
Width: 472
Flags: HW
HStem: -336 100<90 282> 836 100<90 282>
VStem: 90 292<-336 -236 836 936> 282 100<-236 836>
LayerCount: 2
Fore
SplineSet
382 936 m 1xe0
 382 -336 l 1
 90 -336 l 1
 90 -236 l 1xe0
 282 -236 l 1
 282 836 l 1xd0
 90 836 l 1
 90 936 l 1
 382 936 l 1xe0
EndSplineSet
EndChar

StartChar: bracketright.big2
Encoding: 26 -1 26
Width: 490
Flags: HW
HStem: -495 100<90 300> 995 100<90 300>
VStem: 300 100<-395 995>
LayerCount: 2
Fore
SplineSet
400 1095 m 1
 400 -495 l 1
 90 -495 l 1
 90 -395 l 1
 300 -395 l 1
 300 995 l 1
 90 995 l 1
 90 1095 l 1
 400 1095 l 1
EndSplineSet
EndChar

StartChar: bracketright.big3
Encoding: 27 -1 27
Width: 508
Flags: HW
HStem: -654 100<90 318> 1154 100<90 318>
VStem: 318 100<-554 1154>
LayerCount: 2
Fore
SplineSet
418 1254 m 1
 418 -654 l 1
 90 -654 l 1
 90 -554 l 1
 318 -554 l 1
 318 1154 l 1
 90 1154 l 1
 90 1254 l 1
 418 1254 l 1
EndSplineSet
EndChar

StartChar: bracketright.big4
Encoding: 28 -1 28
Width: 544
Flags: HW
HStem: -972 100<90 354> 1472 100<90 354>
VStem: 354 100<-872 1472>
LayerCount: 2
Fore
SplineSet
454 1572 m 1
 454 -972 l 1
 90 -972 l 1
 90 -872 l 1
 354 -872 l 1
 354 1472 l 1
 90 1472 l 1
 90 1572 l 1
 454 1572 l 1
EndSplineSet
EndChar

StartChar: bracketright.big5
Encoding: 29 -1 29
Width: 580
Flags: HW
HStem: -1290 100<90 390> 1790 100<90 390>
VStem: 390 100<-1190 1790>
LayerCount: 2
Fore
SplineSet
490 1890 m 1
 490 -1290 l 1
 90 -1290 l 1
 90 -1190 l 1
 390 -1190 l 1
 390 1790 l 1
 90 1790 l 1
 90 1890 l 1
 490 1890 l 1
EndSplineSet
EndChar

StartChar: uni230A
Encoding: 30 8970 30
Width: 460
Flags: HW
HStem: -230 100<190 370>
VStem: 90 100<-130 880>
LayerCount: 2
Fore
SplineSet
190 -130 m 1
 370 -130 l 1
 370 -230 l 1
 90 -230 l 1
 90 880 l 1
 190 880 l 1
 190 -130 l 1
EndSplineSet
EndChar

StartChar: uni230A.big1
Encoding: 31 -1 31
Width: 472
Flags: HW
HStem: -336 100<190 382>
VStem: 90 100<-236 986>
LayerCount: 2
Fore
SplineSet
190 -236 m 1
 382 -236 l 1
 382 -336 l 1
 90 -336 l 1
 90 986 l 1
 190 986 l 1
 190 -236 l 1
EndSplineSet
EndChar

StartChar: uni230A.big2
Encoding: 32 -1 32
Width: 490
Flags: HW
HStem: -495 100<190 400>
VStem: 90 100<-395 1145>
LayerCount: 2
Fore
SplineSet
190 -395 m 1
 400 -395 l 1
 400 -495 l 1
 90 -495 l 1
 90 1145 l 1
 190 1145 l 1
 190 -395 l 1
EndSplineSet
EndChar

StartChar: uni230A.big3
Encoding: 33 -1 33
Width: 508
Flags: HW
HStem: -654 100<190 418>
VStem: 90 100<-554 1304>
LayerCount: 2
Fore
SplineSet
190 -554 m 1
 418 -554 l 1
 418 -654 l 1
 90 -654 l 1
 90 1304 l 1
 190 1304 l 1
 190 -554 l 1
EndSplineSet
EndChar

StartChar: uni230A.big4
Encoding: 34 -1 34
Width: 544
Flags: HW
HStem: -972 100<190 454>
VStem: 90 100<-872 1622>
LayerCount: 2
Fore
SplineSet
190 -872 m 1
 454 -872 l 1
 454 -972 l 1
 90 -972 l 1
 90 1622 l 1
 190 1622 l 1
 190 -872 l 1
EndSplineSet
EndChar

StartChar: uni230A.big5
Encoding: 35 -1 35
Width: 580
Flags: HW
HStem: -1290 100<190 490>
VStem: 90 100<-1190 1940>
LayerCount: 2
Fore
SplineSet
190 -1190 m 1
 490 -1190 l 1
 490 -1290 l 1
 90 -1290 l 1
 90 1940 l 1
 190 1940 l 1
 190 -1190 l 1
EndSplineSet
EndChar

StartChar: uni230B
Encoding: 36 8971 36
Width: 460
Flags: HW
HStem: -230 100<90 270>
VStem: 270 100<-130 880>
LayerCount: 2
Fore
SplineSet
370 -230 m 1
 90 -230 l 1
 90 -130 l 1
 270 -130 l 1
 270 880 l 1
 370 880 l 1
 370 -230 l 1
EndSplineSet
EndChar

StartChar: uni230B.big1
Encoding: 37 -1 37
Width: 472
Flags: HW
HStem: -336 100<90 282>
VStem: 282 100<-236 986>
LayerCount: 2
Fore
SplineSet
382 -336 m 1
 90 -336 l 1
 90 -236 l 1
 282 -236 l 1
 282 986 l 1
 382 986 l 1
 382 -336 l 1
EndSplineSet
EndChar

StartChar: uni230B.big2
Encoding: 38 -1 38
Width: 490
Flags: HW
HStem: -495 100<90 300>
VStem: 300 100<-395 1145>
LayerCount: 2
Fore
SplineSet
400 -495 m 1
 90 -495 l 1
 90 -395 l 1
 300 -395 l 1
 300 1145 l 1
 400 1145 l 1
 400 -495 l 1
EndSplineSet
EndChar

StartChar: uni230B.big3
Encoding: 39 -1 39
Width: 508
Flags: HW
HStem: -654 100<90 318>
VStem: 318 100<-554 1304>
LayerCount: 2
Fore
SplineSet
418 -654 m 1
 90 -654 l 1
 90 -554 l 1
 318 -554 l 1
 318 1304 l 1
 418 1304 l 1
 418 -654 l 1
EndSplineSet
EndChar

StartChar: uni230B.big4
Encoding: 40 -1 40
Width: 544
Flags: HW
HStem: -972 100<90 354>
VStem: 354 100<-872 1622>
LayerCount: 2
Fore
SplineSet
454 -972 m 1
 90 -972 l 1
 90 -872 l 1
 354 -872 l 1
 354 1622 l 1
 454 1622 l 1
 454 -972 l 1
EndSplineSet
EndChar

StartChar: uni230B.big5
Encoding: 41 -1 41
Width: 580
Flags: HW
HStem: -1290 100<90 390>
VStem: 390 100<-1190 1940>
LayerCount: 2
Fore
SplineSet
490 -1290 m 1
 90 -1290 l 1
 90 -1190 l 1
 390 -1190 l 1
 390 1940 l 1
 490 1940 l 1
 490 -1290 l 1
EndSplineSet
EndChar

StartChar: uni2308
Encoding: 42 8968 42
Width: 460
Flags: HW
HStem: 730 100<190 370>
VStem: 90 100<-280 730>
LayerCount: 2
Fore
SplineSet
190 -280 m 1
 90 -280 l 1
 90 830 l 1
 370 830 l 1
 370 730 l 1
 190 730 l 1
 190 -280 l 1
EndSplineSet
EndChar

StartChar: uni2308.big1
Encoding: 43 -1 43
Width: 472
Flags: HW
HStem: 836 100<190 382>
VStem: 90 100<-386 836>
LayerCount: 2
Fore
SplineSet
190 -386 m 1
 90 -386 l 1
 90 936 l 1
 382 936 l 1
 382 836 l 1
 190 836 l 1
 190 -386 l 1
EndSplineSet
EndChar

StartChar: uni2308.big2
Encoding: 44 -1 44
Width: 490
Flags: HW
HStem: 995 100<190 400>
VStem: 90 100<-545 995>
LayerCount: 2
Fore
SplineSet
190 -545 m 1
 90 -545 l 1
 90 1095 l 1
 400 1095 l 1
 400 995 l 1
 190 995 l 1
 190 -545 l 1
EndSplineSet
EndChar

StartChar: uni2308.big3
Encoding: 45 -1 45
Width: 508
Flags: HW
HStem: 1154 100<190 418>
VStem: 90 100<-704 1154>
LayerCount: 2
Fore
SplineSet
190 -704 m 1
 90 -704 l 1
 90 1254 l 1
 418 1254 l 1
 418 1154 l 1
 190 1154 l 1
 190 -704 l 1
EndSplineSet
EndChar

StartChar: uni2308.big4
Encoding: 46 -1 46
Width: 544
Flags: HW
HStem: 1472 100<190 454>
VStem: 90 100<-1022 1472>
LayerCount: 2
Fore
SplineSet
190 -1022 m 1
 90 -1022 l 1
 90 1572 l 1
 454 1572 l 1
 454 1472 l 1
 190 1472 l 1
 190 -1022 l 1
EndSplineSet
EndChar

StartChar: uni2308.big5
Encoding: 47 -1 47
Width: 580
Flags: HW
HStem: 1790 100<190 490>
VStem: 90 100<-1340 1790>
LayerCount: 2
Fore
SplineSet
190 -1340 m 1
 90 -1340 l 1
 90 1890 l 1
 490 1890 l 1
 490 1790 l 1
 190 1790 l 1
 190 -1340 l 1
EndSplineSet
EndChar

StartChar: uni2309
Encoding: 48 8969 48
Width: 460
Flags: HW
HStem: 730 100<90 270>
VStem: 270 100<-280 730>
LayerCount: 2
Fore
SplineSet
370 830 m 1
 370 -280 l 1
 270 -280 l 1
 270 730 l 1
 90 730 l 1
 90 830 l 1
 370 830 l 1
EndSplineSet
EndChar

StartChar: uni2309.big1
Encoding: 49 -1 49
Width: 472
Flags: HW
HStem: 836 100<90 282>
VStem: 282 100<-386 836>
LayerCount: 2
Fore
SplineSet
382 936 m 1
 382 -386 l 1
 282 -386 l 1
 282 836 l 1
 90 836 l 1
 90 936 l 1
 382 936 l 1
EndSplineSet
EndChar

StartChar: uni2309.big2
Encoding: 50 -1 50
Width: 490
Flags: HW
HStem: 995 100<90 300>
VStem: 300 100<-545 995>
LayerCount: 2
Fore
SplineSet
400 1095 m 1
 400 -545 l 1
 300 -545 l 1
 300 995 l 1
 90 995 l 1
 90 1095 l 1
 400 1095 l 1
EndSplineSet
EndChar

StartChar: uni2309.big3
Encoding: 51 -1 51
Width: 508
Flags: HW
HStem: 1154 100<90 318>
VStem: 318 100<-704 1154>
LayerCount: 2
Fore
SplineSet
418 1254 m 1
 418 -704 l 1
 318 -704 l 1
 318 1154 l 1
 90 1154 l 1
 90 1254 l 1
 418 1254 l 1
EndSplineSet
EndChar

StartChar: uni2309.big4
Encoding: 52 -1 52
Width: 544
Flags: HW
HStem: 1472 100<90 354>
VStem: 354 100<-1022 1472>
LayerCount: 2
Fore
SplineSet
454 1572 m 1
 454 -1022 l 1
 354 -1022 l 1
 354 1472 l 1
 90 1472 l 1
 90 1572 l 1
 454 1572 l 1
EndSplineSet
EndChar

StartChar: uni2309.big5
Encoding: 53 -1 53
Width: 580
Flags: HW
HStem: 1790 100<90 390>
VStem: 390 100<-1340 1790>
LayerCount: 2
Fore
SplineSet
490 1890 m 1
 490 -1340 l 1
 390 -1340 l 1
 390 1790 l 1
 90 1790 l 1
 90 1890 l 1
 490 1890 l 1
EndSplineSet
EndChar

StartChar: uni231C
Encoding: 54 8988 54
Width: 460
Flags: HW
HStem: 550 21G<90 190> 730 100<190 370>
VStem: 90 100<550 730>
LayerCount: 2
Fore
SplineSet
90 830 m 1
 370 830 l 1
 370 730 l 1
 190 730 l 1
 190 550 l 1
 90 550 l 1
 90 830 l 1
EndSplineSet
EndChar

StartChar: uni231C.big1
Encoding: 55 -1 55
Width: 472
Flags: HW
HStem: 836 100<190 382>
VStem: 90 100<644 836>
LayerCount: 2
Fore
SplineSet
90 936 m 1
 382 936 l 1
 382 836 l 1
 190 836 l 1
 190 644 l 1
 90 644 l 1
 90 936 l 1
EndSplineSet
EndChar

StartChar: uni231C.big2
Encoding: 56 -1 56
Width: 490
Flags: HW
HStem: 995 100<190 400>
VStem: 90 100<785 995>
LayerCount: 2
Fore
SplineSet
90 1095 m 1
 400 1095 l 1
 400 995 l 1
 190 995 l 1
 190 785 l 1
 90 785 l 1
 90 1095 l 1
EndSplineSet
EndChar

StartChar: uni231C.big3
Encoding: 57 -1 57
Width: 508
Flags: HW
HStem: 1154 100<190 418>
VStem: 90 100<926 1154>
LayerCount: 2
Fore
SplineSet
90 1254 m 1
 418 1254 l 1
 418 1154 l 1
 190 1154 l 1
 190 926 l 1
 90 926 l 1
 90 1254 l 1
EndSplineSet
EndChar

StartChar: uni231C.big4
Encoding: 58 -1 58
Width: 544
Flags: HW
HStem: 1472 100<190 454>
VStem: 90 100<1208 1472>
LayerCount: 2
Fore
SplineSet
90 1572 m 1
 454 1572 l 1
 454 1472 l 1
 190 1472 l 1
 190 1208 l 1
 90 1208 l 1
 90 1572 l 1
EndSplineSet
EndChar

StartChar: uni231C.big5
Encoding: 59 -1 59
Width: 580
Flags: HW
HStem: 1790 100<190 490>
VStem: 90 100<1490 1790>
LayerCount: 2
Fore
SplineSet
90 1890 m 1
 490 1890 l 1
 490 1790 l 1
 190 1790 l 1
 190 1490 l 1
 90 1490 l 1
 90 1890 l 1
EndSplineSet
EndChar

StartChar: uni231D
Encoding: 60 8989 60
Width: 460
Flags: HW
HStem: 550 21G<270 370> 730 100<90 270>
VStem: 270 100<550 730>
LayerCount: 2
Fore
SplineSet
270 730 m 1
 90 730 l 1
 90 830 l 1
 370 830 l 1
 370 550 l 1
 270 550 l 1
 270 730 l 1
EndSplineSet
EndChar

StartChar: uni231D.big1
Encoding: 61 -1 61
Width: 472
Flags: HW
HStem: 836 100<90 282>
VStem: 282 100<644 836>
LayerCount: 2
Fore
SplineSet
282 836 m 1
 90 836 l 1
 90 936 l 1
 382 936 l 1
 382 644 l 1
 282 644 l 1
 282 836 l 1
EndSplineSet
EndChar

StartChar: uni231D.big2
Encoding: 62 -1 62
Width: 490
Flags: HW
HStem: 995 100<90 300>
VStem: 300 100<785 995>
LayerCount: 2
Fore
SplineSet
300 995 m 1
 90 995 l 1
 90 1095 l 1
 400 1095 l 1
 400 785 l 1
 300 785 l 1
 300 995 l 1
EndSplineSet
EndChar

StartChar: uni231D.big3
Encoding: 63 -1 63
Width: 508
Flags: HW
HStem: 1154 100<90 318>
VStem: 318 100<926 1154>
LayerCount: 2
Fore
SplineSet
318 1154 m 1
 90 1154 l 1
 90 1254 l 1
 418 1254 l 1
 418 926 l 1
 318 926 l 1
 318 1154 l 1
EndSplineSet
EndChar

StartChar: uni231D.big4
Encoding: 64 -1 64
Width: 544
Flags: HW
HStem: 1472 100<90 354>
VStem: 354 100<1208 1472>
LayerCount: 2
Fore
SplineSet
354 1472 m 1
 90 1472 l 1
 90 1572 l 1
 454 1572 l 1
 454 1208 l 1
 354 1208 l 1
 354 1472 l 1
EndSplineSet
EndChar

StartChar: uni231D.big5
Encoding: 65 -1 65
Width: 580
Flags: HW
HStem: 1790 100<90 390>
VStem: 390 100<1490 1790>
LayerCount: 2
Fore
SplineSet
390 1790 m 1
 90 1790 l 1
 90 1890 l 1
 490 1890 l 1
 490 1490 l 1
 390 1490 l 1
 390 1790 l 1
EndSplineSet
EndChar

StartChar: uni231E
Encoding: 66 8990 66
Width: 460
Flags: HW
HStem: -230 100<190 370>
VStem: 90 100<-130 50>
LayerCount: 2
Fore
SplineSet
190 -130 m 1
 370 -130 l 1
 370 -230 l 1
 90 -230 l 1
 90 50 l 1
 190 50 l 1
 190 -130 l 1
EndSplineSet
EndChar

StartChar: uni231E.big1
Encoding: 67 -1 67
Width: 472
Flags: HW
HStem: -336 100<190 382>
VStem: 90 100<-236 -44>
LayerCount: 2
Fore
SplineSet
190 -236 m 1
 382 -236 l 1
 382 -336 l 1
 90 -336 l 1
 90 -44 l 1
 190 -44 l 1
 190 -236 l 1
EndSplineSet
EndChar

StartChar: uni231E.big2
Encoding: 68 -1 68
Width: 490
Flags: HW
HStem: -495 100<190 400>
VStem: 90 100<-395 -185>
LayerCount: 2
Fore
SplineSet
190 -395 m 1
 400 -395 l 1
 400 -495 l 1
 90 -495 l 1
 90 -185 l 1
 190 -185 l 1
 190 -395 l 1
EndSplineSet
EndChar

StartChar: uni231E.big3
Encoding: 69 -1 69
Width: 508
Flags: HW
HStem: -654 100<190 418>
VStem: 90 100<-554 -326>
LayerCount: 2
Fore
SplineSet
190 -554 m 1
 418 -554 l 1
 418 -654 l 1
 90 -654 l 1
 90 -326 l 1
 190 -326 l 1
 190 -554 l 1
EndSplineSet
EndChar

StartChar: uni231E.big4
Encoding: 70 -1 70
Width: 544
Flags: HW
HStem: -972 100<190 454>
VStem: 90 100<-872 -608>
LayerCount: 2
Fore
SplineSet
190 -872 m 1
 454 -872 l 1
 454 -972 l 1
 90 -972 l 1
 90 -608 l 1
 190 -608 l 1
 190 -872 l 1
EndSplineSet
EndChar

StartChar: uni231E.big5
Encoding: 71 -1 71
Width: 580
Flags: HW
HStem: -1290 100<190 490>
VStem: 90 100<-1190 -890>
LayerCount: 2
Fore
SplineSet
190 -1190 m 1
 490 -1190 l 1
 490 -1290 l 1
 90 -1290 l 1
 90 -890 l 1
 190 -890 l 1
 190 -1190 l 1
EndSplineSet
EndChar

StartChar: uni231F
Encoding: 72 8991 72
Width: 460
Flags: HW
HStem: -230 100<90 270>
VStem: 270 100<-130 50>
LayerCount: 2
Fore
SplineSet
370 -230 m 1
 90 -230 l 1
 90 -130 l 1
 270 -130 l 1
 270 50 l 1
 370 50 l 1
 370 -230 l 1
EndSplineSet
EndChar

StartChar: uni231F.big1
Encoding: 73 -1 73
Width: 472
Flags: HW
HStem: -336 100<90 282>
VStem: 282 100<-236 -44>
LayerCount: 2
Fore
SplineSet
382 -336 m 1
 90 -336 l 1
 90 -236 l 1
 282 -236 l 1
 282 -44 l 1
 382 -44 l 1
 382 -336 l 1
EndSplineSet
EndChar

StartChar: uni231F.big2
Encoding: 74 -1 74
Width: 490
Flags: HW
HStem: -495 100<90 300>
VStem: 300 100<-395 -185>
LayerCount: 2
Fore
SplineSet
400 -495 m 1
 90 -495 l 1
 90 -395 l 1
 300 -395 l 1
 300 -185 l 1
 400 -185 l 1
 400 -495 l 1
EndSplineSet
EndChar

StartChar: uni231F.big3
Encoding: 75 -1 75
Width: 508
Flags: HW
HStem: -654 100<90 318>
VStem: 318 100<-554 -326>
LayerCount: 2
Fore
SplineSet
418 -654 m 1
 90 -654 l 1
 90 -554 l 1
 318 -554 l 1
 318 -326 l 1
 418 -326 l 1
 418 -654 l 1
EndSplineSet
EndChar

StartChar: uni231F.big4
Encoding: 76 -1 76
Width: 544
Flags: HW
HStem: -972 100<90 354>
VStem: 354 100<-872 -608>
LayerCount: 2
Fore
SplineSet
454 -972 m 1
 90 -972 l 1
 90 -872 l 1
 354 -872 l 1
 354 -608 l 1
 454 -608 l 1
 454 -972 l 1
EndSplineSet
EndChar

StartChar: uni231F.big5
Encoding: 77 -1 77
Width: 580
Flags: HW
HStem: -1290 100<90 390>
VStem: 390 100<-1190 -890>
LayerCount: 2
Fore
SplineSet
490 -1290 m 1
 90 -1290 l 1
 90 -1190 l 1
 390 -1190 l 1
 390 -890 l 1
 490 -890 l 1
 490 -1290 l 1
EndSplineSet
EndChar

StartChar: sym0A0
Encoding: 78 -1 78
Width: 460
Flags: HW
HStem: -230 100<190 370> 550 21G<90 190> 730 100<190 370>
VStem: 90 280<-230 -130 730 830> 90 100<-130 50 550 730>
LayerCount: 2
Fore
SplineSet
190 -130 m 1xe8
 370 -130 l 1
 370 -230 l 1
 90 -230 l 1xf0
 90 50 l 1
 190 50 l 1
 190 -130 l 1xe8
90 830 m 1
 370 830 l 1
 370 730 l 1xf0
 190 730 l 1
 190 550 l 1
 90 550 l 1xe8
 90 830 l 1
EndSplineSet
EndChar

StartChar: sym0A0.big1
Encoding: 79 -1 79
Width: 472
Flags: HW
HStem: -336 100<190 382> 836 100<190 382>
VStem: 90 292<-336 -236 836 936> 90 100<-236 -44 644 836>
LayerCount: 2
Fore
SplineSet
190 -236 m 1xd0
 382 -236 l 1
 382 -336 l 1
 90 -336 l 1xe0
 90 -44 l 1
 190 -44 l 1
 190 -236 l 1xd0
90 936 m 1
 382 936 l 1
 382 836 l 1xe0
 190 836 l 1
 190 644 l 1
 90 644 l 1xd0
 90 936 l 1
EndSplineSet
EndChar

StartChar: sym0A0.big2
Encoding: 80 -1 80
Width: 490
Flags: HW
HStem: -495 100<190 400> 995 100<190 400>
VStem: 90 100<-395 -185 785 995>
LayerCount: 2
Fore
SplineSet
190 -395 m 1
 400 -395 l 1
 400 -495 l 1
 90 -495 l 1
 90 -185 l 1
 190 -185 l 1
 190 -395 l 1
90 1095 m 1
 400 1095 l 1
 400 995 l 1
 190 995 l 1
 190 785 l 1
 90 785 l 1
 90 1095 l 1
EndSplineSet
EndChar

StartChar: sym0A0.big3
Encoding: 81 -1 81
Width: 508
Flags: HW
HStem: -654 100<190 418> 1154 100<190 418>
VStem: 90 100<-554 -326 926 1154>
LayerCount: 2
Fore
SplineSet
190 -554 m 1
 418 -554 l 1
 418 -654 l 1
 90 -654 l 1
 90 -326 l 1
 190 -326 l 1
 190 -554 l 1
90 1254 m 1
 418 1254 l 1
 418 1154 l 1
 190 1154 l 1
 190 926 l 1
 90 926 l 1
 90 1254 l 1
EndSplineSet
EndChar

StartChar: sym0A0.big4
Encoding: 82 -1 82
Width: 544
Flags: HW
HStem: -972 100<190 454> 1472 100<190 454>
VStem: 90 100<-872 -608 1208 1472>
LayerCount: 2
Fore
SplineSet
190 -872 m 1
 454 -872 l 1
 454 -972 l 1
 90 -972 l 1
 90 -608 l 1
 190 -608 l 1
 190 -872 l 1
90 1572 m 1
 454 1572 l 1
 454 1472 l 1
 190 1472 l 1
 190 1208 l 1
 90 1208 l 1
 90 1572 l 1
EndSplineSet
EndChar

StartChar: sym0A0.big5
Encoding: 83 -1 83
Width: 580
Flags: HW
HStem: -1290 100<190 490> 1790 100<190 490>
VStem: 90 100<-1190 -890 1490 1790>
LayerCount: 2
Fore
SplineSet
190 -1190 m 1
 490 -1190 l 1
 490 -1290 l 1
 90 -1290 l 1
 90 -890 l 1
 190 -890 l 1
 190 -1190 l 1
90 1890 m 1
 490 1890 l 1
 490 1790 l 1
 190 1790 l 1
 190 1490 l 1
 90 1490 l 1
 90 1890 l 1
EndSplineSet
EndChar

StartChar: sym0A1
Encoding: 84 -1 84
Width: 460
Flags: HW
HStem: -230 100<90 270> 550 21G<270 370> 730 100<90 270>
VStem: 90 280<-230 -130 730 830> 270 100<-130 50 550 730>
LayerCount: 2
Fore
SplineSet
370 -230 m 1xf0
 90 -230 l 1
 90 -130 l 1xf0
 270 -130 l 1
 270 50 l 1
 370 50 l 1xe8
 370 -230 l 1xf0
270 730 m 1xe8
 90 730 l 1
 90 830 l 1
 370 830 l 1xf0
 370 550 l 1
 270 550 l 1
 270 730 l 1xe8
EndSplineSet
EndChar

StartChar: sym0A1.big1
Encoding: 85 -1 85
Width: 472
Flags: HW
HStem: -336 100<90 282> 836 100<90 282>
VStem: 90 292<-336 -236 836 936> 282 100<-236 -44 644 836>
LayerCount: 2
Fore
SplineSet
382 -336 m 1xe0
 90 -336 l 1
 90 -236 l 1xe0
 282 -236 l 1
 282 -44 l 1
 382 -44 l 1xd0
 382 -336 l 1xe0
282 836 m 1xd0
 90 836 l 1
 90 936 l 1
 382 936 l 1xe0
 382 644 l 1
 282 644 l 1
 282 836 l 1xd0
EndSplineSet
EndChar

StartChar: sym0A1.big2
Encoding: 86 -1 86
Width: 490
Flags: HW
HStem: -495 100<90 300> 995 100<90 300>
VStem: 300 100<-395 -185 785 995>
LayerCount: 2
Fore
SplineSet
400 -495 m 1
 90 -495 l 1
 90 -395 l 1
 300 -395 l 1
 300 -185 l 1
 400 -185 l 1
 400 -495 l 1
300 995 m 1
 90 995 l 1
 90 1095 l 1
 400 1095 l 1
 400 785 l 1
 300 785 l 1
 300 995 l 1
EndSplineSet
EndChar

StartChar: sym0A1.big3
Encoding: 87 -1 87
Width: 508
Flags: HW
HStem: -654 100<90 318> 1154 100<90 318>
VStem: 318 100<-554 -326 926 1154>
LayerCount: 2
Fore
SplineSet
418 -654 m 1
 90 -654 l 1
 90 -554 l 1
 318 -554 l 1
 318 -326 l 1
 418 -326 l 1
 418 -654 l 1
318 1154 m 1
 90 1154 l 1
 90 1254 l 1
 418 1254 l 1
 418 926 l 1
 318 926 l 1
 318 1154 l 1
EndSplineSet
EndChar

StartChar: sym0A1.big4
Encoding: 88 -1 88
Width: 544
Flags: HW
HStem: -972 100<90 354> 1472 100<90 354>
VStem: 354 100<-872 -608 1208 1472>
LayerCount: 2
Fore
SplineSet
454 -972 m 1
 90 -972 l 1
 90 -872 l 1
 354 -872 l 1
 354 -608 l 1
 454 -608 l 1
 454 -972 l 1
354 1472 m 1
 90 1472 l 1
 90 1572 l 1
 454 1572 l 1
 454 1208 l 1
 354 1208 l 1
 354 1472 l 1
EndSplineSet
EndChar

StartChar: sym0A1.big5
Encoding: 89 -1 89
Width: 580
Flags: HW
HStem: -1290 100<90 390> 1790 100<90 390>
VStem: 390 100<-1190 -890 1490 1790>
LayerCount: 2
Fore
SplineSet
490 -1290 m 1
 90 -1290 l 1
 90 -1190 l 1
 390 -1190 l 1
 390 -890 l 1
 490 -890 l 1
 490 -1290 l 1
390 1790 m 1
 90 1790 l 1
 90 1890 l 1
 490 1890 l 1
 490 1490 l 1
 390 1490 l 1
 390 1790 l 1
EndSplineSet
EndChar

StartChar: uni23A1
Encoding: 90 9121 90
Width: 580
Flags: HW
HStem: 518 100<190 490>
VStem: 90 100<-68 518>
LayerCount: 2
Fore
SplineSet
190 -68 m 1
 90 -68 l 1
 90 618 l 1
 490 618 l 1
 490 518 l 1
 190 518 l 1
 190 -68 l 1
EndSplineSet
EndChar

StartChar: uni23A4
Encoding: 91 9124 91
Width: 580
Flags: HW
HStem: 518 100<90 390>
VStem: 390 100<-68 518>
LayerCount: 2
Fore
SplineSet
490 618 m 1
 490 -68 l 1
 390 -68 l 1
 390 518 l 1
 90 518 l 1
 90 618 l 1
 490 618 l 1
EndSplineSet
EndChar

StartChar: uni23A3
Encoding: 92 9123 92
Width: 580
Flags: HW
HStem: -18 100<190 490>
VStem: 90 100<82 668>
LayerCount: 2
Fore
SplineSet
190 82 m 1
 490 82 l 1
 490 -18 l 1
 90 -18 l 1
 90 668 l 1
 190 668 l 1
 190 82 l 1
EndSplineSet
EndChar

StartChar: uni23A6
Encoding: 93 9126 93
Width: 580
Flags: HW
HStem: -18 100<90 390>
VStem: 390 100<82 668>
LayerCount: 2
Fore
SplineSet
490 -18 m 1
 90 -18 l 1
 90 82 l 1
 390 82 l 1
 390 668 l 1
 490 668 l 1
 490 -18 l 1
EndSplineSet
EndChar

StartChar: uni23A2
Encoding: 94 9122 94
Width: 580
Flags: HW
VStem: 90 100<91 509>
LayerCount: 2
Fore
SplineSet
190 91 m 1
 90 91 l 1
 90 509 l 1
 190 509 l 1
 190 91 l 1
EndSplineSet
EndChar

StartChar: uni23A5
Encoding: 95 9125 95
Width: 580
Flags: HW
VStem: 390 100<91 509>
LayerCount: 2
Fore
SplineSet
390 91 m 1
 390 509 l 1
 490 509 l 1
 490 91 l 1
 390 91 l 1
EndSplineSet
EndChar

StartChar: uni27E6
Encoding: 96 10214 96
Width: 560
Flags: HW
HStem: -230 100<190 280 380 470> 730 100<190 280 380 470>
VStem: 90 100<-130 730> 280 100<-130 730>
LayerCount: 2
Fore
SplineSet
280 -130 m 1
 280 730 l 1
 190 730 l 1
 190 -130 l 1
 280 -130 l 1
470 -230 m 1
 90 -230 l 1
 90 830 l 1
 470 830 l 1
 470 730 l 1
 380 730 l 1
 380 -130 l 1
 470 -130 l 1
 470 -230 l 1
EndSplineSet
EndChar

StartChar: uni27E6.big1
Encoding: 97 -1 97
Width: 572
Flags: HW
HStem: -336 100<190 286 386 482> 836 100<190 286 386 482>
VStem: 90 100<-236 836> 286 100<-236 836>
LayerCount: 2
Fore
SplineSet
286 -236 m 1
 286 836 l 1
 190 836 l 1
 190 -236 l 1
 286 -236 l 1
482 -336 m 1
 90 -336 l 1
 90 936 l 1
 482 936 l 1
 482 836 l 1
 386 836 l 1
 386 -236 l 1
 482 -236 l 1
 482 -336 l 1
EndSplineSet
EndChar

StartChar: uni27E6.big2
Encoding: 98 -1 98
Width: 590
Flags: HW
HStem: -495 100<190 295 395 500> 995 100<190 295 395 500>
VStem: 90 100<-395 995> 295 100<-395 995>
LayerCount: 2
Fore
SplineSet
295 -395 m 1
 295 995 l 1
 190 995 l 1
 190 -395 l 1
 295 -395 l 1
500 -495 m 1
 90 -495 l 1
 90 1095 l 1
 500 1095 l 1
 500 995 l 1
 395 995 l 1
 395 -395 l 1
 500 -395 l 1
 500 -495 l 1
EndSplineSet
EndChar

StartChar: uni27E6.big3
Encoding: 99 -1 99
Width: 608
Flags: HW
HStem: -654 100<190 304 404 518> 1154 100<190 304 404 518>
VStem: 90 100<-554 1154> 304 100<-554 1154>
LayerCount: 2
Fore
SplineSet
304 -554 m 1
 304 1154 l 1
 190 1154 l 1
 190 -554 l 1
 304 -554 l 1
518 -654 m 1
 90 -654 l 1
 90 1254 l 1
 518 1254 l 1
 518 1154 l 1
 404 1154 l 1
 404 -554 l 1
 518 -554 l 1
 518 -654 l 1
EndSplineSet
EndChar

StartChar: uni27E6.big4
Encoding: 100 -1 100
Width: 644
Flags: HW
HStem: -972 100<190 322 422 554> 1472 100<190 322 422 554>
VStem: 90 100<-872 1472> 322 100<-872 1472>
LayerCount: 2
Fore
SplineSet
322 -872 m 1
 322 1472 l 1
 190 1472 l 1
 190 -872 l 1
 322 -872 l 1
554 -972 m 1
 90 -972 l 1
 90 1572 l 1
 554 1572 l 1
 554 1472 l 1
 422 1472 l 1
 422 -872 l 1
 554 -872 l 1
 554 -972 l 1
EndSplineSet
EndChar

StartChar: uni27E6.big5
Encoding: 101 -1 101
Width: 680
Flags: HW
HStem: -1290 100<190 340 440 590> 1790 100<190 340 440 590>
VStem: 90 100<-1190 1790> 340 100<-1190 1790>
LayerCount: 2
Fore
SplineSet
340 -1190 m 1
 340 1790 l 1
 190 1790 l 1
 190 -1190 l 1
 340 -1190 l 1
590 -1290 m 1
 90 -1290 l 1
 90 1890 l 1
 590 1890 l 1
 590 1790 l 1
 440 1790 l 1
 440 -1190 l 1
 590 -1190 l 1
 590 -1290 l 1
EndSplineSet
EndChar

StartChar: uni27E7
Encoding: 102 10215 102
Width: 560
Flags: HW
HStem: -230 100<90 180 280 370> 730 100<90 180 280 370>
VStem: 180 100<-130 730> 370 100<-130 730>
LayerCount: 2
Fore
SplineSet
280 -130 m 1
 370 -130 l 1
 370 730 l 1
 280 730 l 1
 280 -130 l 1
180 -130 m 1
 180 730 l 1
 90 730 l 1
 90 830 l 1
 470 830 l 1
 470 -230 l 1
 90 -230 l 1
 90 -130 l 1
 180 -130 l 1
EndSplineSet
EndChar

StartChar: uni27E7.big1
Encoding: 103 -1 103
Width: 572
Flags: HW
HStem: -336 100<90 186 286 382> 836 100<90 186 286 382>
VStem: 186 100<-236 836> 382 100<-236 836>
LayerCount: 2
Fore
SplineSet
286 -236 m 1
 382 -236 l 1
 382 836 l 1
 286 836 l 1
 286 -236 l 1
186 -236 m 1
 186 836 l 1
 90 836 l 1
 90 936 l 1
 482 936 l 1
 482 -336 l 1
 90 -336 l 1
 90 -236 l 1
 186 -236 l 1
EndSplineSet
EndChar

StartChar: uni27E7.big2
Encoding: 104 -1 104
Width: 590
Flags: HW
HStem: -495 100<90 195 295 400> 995 100<90 195 295 400>
VStem: 195 100<-395 995> 400 100<-395 995>
LayerCount: 2
Fore
SplineSet
295 -395 m 1
 400 -395 l 1
 400 995 l 1
 295 995 l 1
 295 -395 l 1
195 -395 m 1
 195 995 l 1
 90 995 l 1
 90 1095 l 1
 500 1095 l 1
 500 -495 l 1
 90 -495 l 1
 90 -395 l 1
 195 -395 l 1
EndSplineSet
EndChar

StartChar: uni27E7.big3
Encoding: 105 -1 105
Width: 608
Flags: HW
HStem: -654 100<90 204 304 418> 1154 100<90 204 304 418>
VStem: 204 100<-554 1154> 418 100<-554 1154>
LayerCount: 2
Fore
SplineSet
304 -554 m 1
 418 -554 l 1
 418 1154 l 1
 304 1154 l 1
 304 -554 l 1
204 -554 m 1
 204 1154 l 1
 90 1154 l 1
 90 1254 l 1
 518 1254 l 1
 518 -654 l 1
 90 -654 l 1
 90 -554 l 1
 204 -554 l 1
EndSplineSet
EndChar

StartChar: uni27E7.big4
Encoding: 106 -1 106
Width: 644
Flags: HW
HStem: -972 100<90 222 322 454> 1472 100<90 222 322 454>
VStem: 222 100<-872 1472> 454 100<-872 1472>
LayerCount: 2
Fore
SplineSet
322 -872 m 1
 454 -872 l 1
 454 1472 l 1
 322 1472 l 1
 322 -872 l 1
222 -872 m 1
 222 1472 l 1
 90 1472 l 1
 90 1572 l 1
 554 1572 l 1
 554 -972 l 1
 90 -972 l 1
 90 -872 l 1
 222 -872 l 1
EndSplineSet
EndChar

StartChar: uni27E7.big5
Encoding: 107 -1 107
Width: 680
Flags: HW
HStem: -1290 100<90 240 340 490> 1790 100<90 240 340 490>
VStem: 240 100<-1190 1790> 490 100<-1190 1790>
LayerCount: 2
Fore
SplineSet
340 -1190 m 1
 490 -1190 l 1
 490 1790 l 1
 340 1790 l 1
 340 -1190 l 1
240 -1190 m 1
 240 1790 l 1
 90 1790 l 1
 90 1890 l 1
 590 1890 l 1
 590 -1290 l 1
 90 -1290 l 1
 90 -1190 l 1
 240 -1190 l 1
EndSplineSet
EndChar

StartChar: sym0A2
Encoding: 108 -1 108
Width: 680
Flags: HW
HStem: 518 100<190 340 440 590>
VStem: 90 100<-68 518> 340 100<-68 518>
LayerCount: 2
Fore
SplineSet
440 -68 m 1
 340 -68 l 1
 340 518 l 1
 190 518 l 1
 190 -68 l 1
 90 -68 l 1
 90 618 l 1
 590 618 l 1
 590 518 l 1
 440 518 l 1
 440 -68 l 1
EndSplineSet
EndChar

StartChar: sym0A5
Encoding: 109 -1 109
Width: 680
Flags: HW
HStem: 518 100<90 240 340 490>
VStem: 240 100<-68 518> 490 100<-68 518>
LayerCount: 2
Fore
SplineSet
340 -68 m 1
 240 -68 l 1
 240 518 l 1
 90 518 l 1
 90 618 l 1
 590 618 l 1
 590 -68 l 1
 490 -68 l 1
 490 518 l 1
 340 518 l 1
 340 -68 l 1
EndSplineSet
EndChar

StartChar: sym0A4
Encoding: 110 -1 110
Width: 680
Flags: HW
HStem: -18 100<190 340 440 590>
VStem: 90 100<82 668> 340 100<82 668>
LayerCount: 2
Fore
SplineSet
590 -18 m 1
 90 -18 l 1
 90 668 l 1
 190 668 l 1
 190 82 l 1
 340 82 l 1
 340 668 l 1
 440 668 l 1
 440 82 l 1
 590 82 l 1
 590 -18 l 1
EndSplineSet
EndChar

StartChar: sym0A7
Encoding: 111 -1 111
Width: 680
Flags: HW
HStem: -18 100<90 240 340 490>
VStem: 240 100<82 668> 490 100<82 668>
LayerCount: 2
Fore
SplineSet
240 82 m 1
 240 668 l 1
 340 668 l 1
 340 82 l 1
 490 82 l 1
 490 668 l 1
 590 668 l 1
 590 -18 l 1
 90 -18 l 1
 90 82 l 1
 240 82 l 1
EndSplineSet
EndChar

StartChar: sym0A3
Encoding: 112 -1 112
Width: 580
Flags: HW
VStem: 90 100<91 509> 290 100<91 509>
LayerCount: 2
Fore
SplineSet
190 91 m 1
 90 91 l 1
 90 509 l 1
 190 509 l 1
 190 91 l 1
390 91 m 1
 290 91 l 1
 290 509 l 1
 390 509 l 1
 390 91 l 1
EndSplineSet
EndChar

StartChar: sym0A6
Encoding: 113 -1 113
Width: 580
Flags: HW
VStem: 190 100<91 509> 390 100<91 509>
LayerCount: 2
Fore
SplineSet
390 91 m 1
 390 509 l 1
 490 509 l 1
 490 91 l 1
 390 91 l 1
290 91 m 1
 190 91 l 1
 190 509 l 1
 290 509 l 1
 290 91 l 1
EndSplineSet
EndChar

StartChar: braceleft
Encoding: 114 123 114
Width: 505
Flags: HW
HStem: -230 83<351.989 415> 254 92<90 155.237> 747 83<351.989 415>
VStem: 203 100<-93.5674 206.898 393.102 693.567>
CounterMasks: 1 e0
LayerCount: 2
Fore
SplineSet
415 747 m 1
 350 747 303 689 303 622 c 2
 303 458 l 2
 303 394 273 337 225 300 c 1
 273 263 303 206 303 142 c 2
 303 -22 l 2
 303 -89 350 -147 415 -147 c 1
 415 -230 l 1
 298 -230 203 -137 203 -22 c 2
 203 142 l 2
 203 204 152 254 90 254 c 1
 90 346 l 1
 152 346 203 396 203 458 c 2
 203 622 l 2
 203 737 298 830 415 830 c 1
 415 747 l 1
EndSplineSet
EndChar

StartChar: braceleft.big1
Encoding: 115 -1 115
Width: 517
Flags: HW
HStem: -336 83<362.589 427> 254 92<90 158.573> 853 83<362.589 427>
VStem: 209 100<-197.259 202.739 397.261 797.259>
CounterMasks: 1 e0
LayerCount: 2
Fore
SplineSet
427 853 m 1
 360 853 309 793 309 724 c 2
 309 462 l 2
 309 396 276 338 227 300 c 1
 276 262 309 204 309 138 c 2
 309 -124 l 2
 309 -193 360 -253 427 -253 c 1
 427 -336 l 1
 307 -336 209 -242 209 -124 c 2
 209 138 l 2
 209 202 155 254 90 254 c 1
 90 346 l 1
 155 346 209 398 209 462 c 2
 209 724 l 2
 209 842 307 936 427 936 c 1
 427 853 l 1
EndSplineSet
EndChar

StartChar: braceleft.big2
Encoding: 116 -1 116
Width: 535
Flags: HW
HStem: -495 83<378.005 445> 254 92<90 161.262> 1012 83<378.005 445>
VStem: 218 100<-351.795 198.032 401.968 951.795>
CounterMasks: 1 e0
LayerCount: 2
Fore
SplineSet
445 1012 m 1
 373 1012 318 950 318 877 c 2
 318 468 l 2
 318 399 284 339 231 300 c 1
 284 261 318 201 318 132 c 2
 318 -277 l 2
 318 -350 373 -412 445 -412 c 1
 445 -495 l 1
 321 -495 218 -399 218 -277 c 2
 218 132 l 2
 218 200 160 254 90 254 c 1
 90 346 l 1
 160 346 218 400 218 468 c 2
 218 877 l 2
 218 999 321 1095 445 1095 c 1
 445 1012 l 1
EndSplineSet
EndChar

StartChar: braceleft.big3
Encoding: 117 -1 117
Width: 553
Flags: HW
HStem: -654 83<393.689 463> 254 92<90 165.867> 1171 83<393.689 463>
VStem: 227 100<-502.729 193.221 406.779 1102.73>
CounterMasks: 1 e0
LayerCount: 2
Fore
SplineSet
463 1171 m 1
 387 1171 327 1107 327 1030 c 2
 327 474 l 2
 327 402 291 340 235 300 c 1
 291 260 327 198 327 126 c 2
 327 -430 l 2
 327 -507 387 -571 463 -571 c 1
 463 -654 l 1
 335 -654 227 -556 227 -430 c 2
 227 126 l 2
 227 198 164 254 90 254 c 1
 90 346 l 1
 164 346 227 402 227 474 c 2
 227 1030 l 2
 227 1156 335 1254 463 1254 c 1
 463 1171 l 1
EndSplineSet
EndChar

StartChar: braceleft.big4
Encoding: 118 -1 118
Width: 589
Flags: HW
HStem: -972 83<424.686 499> 254 92<90 172.391> 1489 83<424.686 499>
VStem: 245 100<-811.935 183.243 416.757 1411.93>
CounterMasks: 1 e0
LayerCount: 2
Fore
SplineSet
499 1489 m 1
 414 1489 345 1420 345 1336 c 2
 345 486 l 2
 345 408 304 342 242 300 c 1
 304 258 345 192 345 114 c 2
 345 -736 l 2
 345 -820 414 -889 499 -889 c 1
 499 -972 l 1
 362 -972 245 -870 245 -736 c 2
 245 114 l 2
 245 194 173 254 90 254 c 1
 90 346 l 1
 173 346 245 406 245 486 c 2
 245 1336 l 2
 245 1470 362 1572 499 1572 c 1
 499 1489 l 1
EndSplineSet
EndChar

StartChar: braceleft.big5
Encoding: 119 -1 119
Width: 625
Flags: HW
HStem: -1290 83<449.827 535> 254 92<90 178.132> 1807 83<449.827 535>
VStem: 263 100<-1117.25 176.248 423.752 1717.25>
CounterMasks: 1 e0
LayerCount: 2
Fore
SplineSet
535 1807 m 1
 441 1807 363 1734 363 1642 c 2
 363 498 l 2
 363 414 318 343 250 300 c 1
 318 257 363 186 363 102 c 2
 363 -1042 l 2
 363 -1134 441 -1207 535 -1207 c 1
 535 -1290 l 1
 389 -1290 263 -1183 263 -1042 c 2
 263 102 l 2
 263 190 182 254 90 254 c 1
 90 346 l 1
 182 346 263 410 263 498 c 2
 263 1642 l 2
 263 1783 389 1890 535 1890 c 1
 535 1807 l 1
EndSplineSet
EndChar

StartChar: braceright
Encoding: 120 125 120
Width: 505
Flags: HW
HStem: -230 83<90 153.103> 254 92<350.102 415> 747 83<90 153.103>
VStem: 203 100<-93.5674 206.898 393.102 693.567>
CounterMasks: 1 e0
LayerCount: 2
Fore
SplineSet
90 -147 m 1
 155 -147 203 -89 203 -22 c 2
 203 142 l 2
 203 206 234 263 281 300 c 1
 234 337 203 394 203 458 c 2
 203 622 l 2
 203 689 155 747 90 747 c 1
 90 830 l 1
 207 830 303 737 303 622 c 2
 303 458 l 2
 303 396 353 346 415 346 c 1
 415 254 l 1
 353 254 303 204 303 142 c 2
 303 -22 l 2
 303 -137 207 -230 90 -230 c 1
 90 -147 l 1
EndSplineSet
EndChar

StartChar: braceright.big1
Encoding: 121 -1 121
Width: 517
Flags: HW
HStem: -336 83<90 154.705> 254 92<358.765 427> 853 83<90 154.705>
VStem: 209 100<-197.259 202.739 397.261 797.259>
CounterMasks: 1 e0
LayerCount: 2
Fore
SplineSet
90 -253 m 1
 157 -253 209 -193 209 -124 c 2
 209 138 l 2
 209 204 241 262 290 300 c 1
 241 338 209 396 209 462 c 2
 209 724 l 2
 209 793 157 853 90 853 c 1
 90 936 l 1
 210 936 309 842 309 724 c 2
 309 462 l 2
 309 398 362 346 427 346 c 1
 427 254 l 1
 362 254 309 202 309 138 c 2
 309 -124 l 2
 309 -242 210 -336 90 -336 c 1
 90 -253 l 1
EndSplineSet
EndChar

StartChar: braceright.big2
Encoding: 122 -1 122
Width: 535
Flags: HW
HStem: -495 83<90 157.087> 254 92<374.055 445> 1012 83<90 157.087>
VStem: 218 100<-347.539 199.478 400.522 947.539>
CounterMasks: 1 e0
LayerCount: 2
Fore
SplineSet
90 -412 m 1
 162 -412 218 -350 218 -277 c 2
 218 132 l 2
 218 201 253 261 305 300 c 1
 253 339 218 399 218 468 c 2
 218 877 l 2
 218 950 162 1012 90 1012 c 1
 90 1095 l 1
 214 1095 318 999 318 877 c 2
 318 468 l 2
 318 400 375 346 445 346 c 1
 445 254 l 1
 375 254 318 200 318 132 c 2
 318 -277 l 2
 318 -399 214 -495 90 -495 c 1
 90 -412 l 1
EndSplineSet
EndChar

StartChar: braceright.big3
Encoding: 123 -1 123
Width: 553
Flags: HW
HStem: -654 83<90 159.403> 254 92<387.449 463> 1171 83<90 159.403>
VStem: 227 100<-502.729 193.221 406.779 1102.73>
CounterMasks: 1 e0
LayerCount: 2
Fore
SplineSet
90 -571 m 1
 166 -571 227 -507 227 -430 c 2
 227 126 l 2
 227 198 263 260 318 300 c 1
 263 340 227 402 227 474 c 2
 227 1030 l 2
 227 1107 166 1171 90 1171 c 1
 90 1254 l 1
 218 1254 327 1156 327 1030 c 2
 327 474 l 2
 327 402 389 346 463 346 c 1
 463 254 l 1
 389 254 327 198 327 126 c 2
 327 -430 l 2
 327 -556 218 -654 90 -654 c 1
 90 -571 l 1
EndSplineSet
EndChar

StartChar: braceright.big4
Encoding: 124 -1 124
Width: 589
Flags: HW
HStem: -972 83<90 164.406> 254 92<416.903 499> 1489 83<90 164.406>
VStem: 245 100<-811.935 184.877 415.123 1411.93>
CounterMasks: 1 e0
LayerCount: 2
Fore
SplineSet
90 -889 m 1
 175 -889 245 -820 245 -736 c 2
 245 114 l 2
 245 192 286 258 347 300 c 1
 286 342 245 408 245 486 c 2
 245 1336 l 2
 245 1420 175 1489 90 1489 c 1
 90 1572 l 1
 227 1572 345 1470 345 1336 c 2
 345 486 l 2
 345 406 416 346 499 346 c 1
 499 254 l 1
 416 254 345 194 345 114 c 2
 345 -736 l 2
 345 -870 227 -972 90 -972 c 1
 90 -889 l 1
EndSplineSet
EndChar

StartChar: braceright.big5
Encoding: 125 -1 125
Width: 625
Flags: HW
HStem: -1290 83<90 175.425> 254 92<447.141 535> 1807 83<90 175.425>
VStem: 263 100<-1117.25 176.248 423.752 1717.25>
CounterMasks: 1 e0
LayerCount: 2
Fore
SplineSet
90 -1207 m 1
 184 -1207 263 -1134 263 -1042 c 2
 263 102 l 2
 263 186 309 257 376 300 c 1
 309 343 263 414 263 498 c 2
 263 1642 l 2
 263 1734 184 1807 90 1807 c 1
 90 1890 l 1
 236 1890 363 1783 363 1642 c 2
 363 498 l 2
 363 410 443 346 535 346 c 1
 535 254 l 1
 443 254 363 190 363 102 c 2
 363 -1042 l 2
 363 -1183 236 -1290 90 -1290 c 1
 90 -1207 l 1
EndSplineSet
EndChar

StartChar: uni23A7
Encoding: 126 9127 126
Width: 625
Flags: HW
HStem: 535 83<449.827 535>
VStem: 263 100<-68 445.245>
LayerCount: 2
Fore
SplineSet
535 535 m 1
 441 535 363 462 363 370 c 2
 363 -68 l 1
 263 -68 l 1
 263 370 l 2
 263 511 389 618 535 618 c 1
 535 535 l 1
EndSplineSet
EndChar

StartChar: uni23AB
Encoding: 127 9131 127
Width: 625
Flags: HW
HStem: 535 83<90 175.425>
VStem: 263 100<-68 445.245>
LayerCount: 2
Fore
SplineSet
90 618 m 1
 236 618 363 511 363 370 c 2
 363 -68 l 1
 263 -68 l 1
 263 370 l 2
 263 462 184 535 90 535 c 1
 90 618 l 1
EndSplineSet
EndChar

StartChar: uni23A9
Encoding: 128 9129 128
Width: 625
Flags: HW
HStem: -18 83<449.827 535>
VStem: 263 100<154.755 668>
LayerCount: 2
Fore
SplineSet
535 -18 m 1
 389 -18 263 89 263 230 c 2
 263 668 l 1
 363 668 l 1
 363 230 l 2
 363 138 441 65 535 65 c 1
 535 -18 l 1
EndSplineSet
EndChar

StartChar: uni23AD
Encoding: 129 9133 129
Width: 625
Flags: HW
HStem: -18 83<90 175.425>
VStem: 263 100<154.755 668>
LayerCount: 2
Fore
SplineSet
90 65 m 1
 184 65 263 138 263 230 c 2
 263 668 l 1
 363 668 l 1
 363 230 l 2
 363 89 236 -18 90 -18 c 1
 90 65 l 1
EndSplineSet
EndChar

StartChar: uni23A8
Encoding: 130 9128 130
Width: 625
Flags: HW
HStem: 254 92<90 178.132>
VStem: 263 100<-68 176.248 423.752 668>
LayerCount: 2
Fore
SplineSet
363 668 m 1
 363 498 l 2
 363 414 318 343 250 300 c 1
 318 257 363 186 363 102 c 2
 363 -68 l 1
 263 -68 l 1
 263 102 l 2
 263 190 182 254 90 254 c 1
 90 346 l 1
 182 346 263 410 263 498 c 2
 263 668 l 1
 363 668 l 1
EndSplineSet
EndChar

StartChar: uni23AC
Encoding: 131 9132 131
Width: 625
Flags: HW
HStem: 254 92<447.141 535>
VStem: 263 100<-68 176.248 423.752 668>
LayerCount: 2
Fore
SplineSet
263 -68 m 1
 263 102 l 2
 263 186 309 257 376 300 c 1
 309 343 263 414 263 498 c 2
 263 668 l 1
 363 668 l 1
 363 498 l 2
 363 410 443 346 535 346 c 1
 535 254 l 1
 443 254 363 190 363 102 c 2
 363 -68 l 1
 263 -68 l 1
EndSplineSet
EndChar

StartChar: uni23AA
Encoding: 132 9130 132
Width: 625
Flags: HW
VStem: 263 100<91 509>
LayerCount: 2
Fore
SplineSet
263 509 m 1
 363 509 l 1
 363 91 l 1
 263 91 l 1
 263 509 l 1
EndSplineSet
EndChar

StartChar: uni27E8
Encoding: 133 10216 133
Width: 460
Flags: HW
VStem: 93 274
LayerCount: 2
Fore
SplineSet
367 -214 m 1
 273 -246 l 1
 93 300 l 1
 273 846 l 1
 367 814 l 1
 187 300 l 1
 367 -214 l 1
EndSplineSet
EndChar

StartChar: uni27E8.big1
Encoding: 134 -1 134
Width: 472
Flags: HW
VStem: 92 288
LayerCount: 2
Fore
SplineSet
380 -322 m 1
 284 -350 l 1
 92 300 l 1
 284 950 l 1
 380 922 l 1
 188 300 l 1
 380 -322 l 1
EndSplineSet
EndChar

StartChar: uni27E8.big2
Encoding: 135 -1 135
Width: 490
Flags: HW
VStem: 92 306
LayerCount: 2
Fore
SplineSet
398 -482 m 1
 302 -508 l 1
 92 300 l 1
 302 1108 l 1
 398 1082 l 1
 188 300 l 1
 398 -482 l 1
EndSplineSet
EndChar

StartChar: uni27E8.big3
Encoding: 136 -1 136
Width: 508
Flags: HW
VStem: 91 326
LayerCount: 2
Fore
SplineSet
417 -642 m 1
 319 -666 l 1
 91 300 l 1
 319 1266 l 1
 417 1242 l 1
 189 300 l 1
 417 -642 l 1
EndSplineSet
EndChar

StartChar: uni27E8.big4
Encoding: 137 -1 137
Width: 544
Flags: HW
LayerCount: 2
Fore
SplineSet
453 -962 m 1
 355 -982 l 1
 91 300 l 1
 355 1582 l 1
 453 1562 l 1
 189 300 l 1
 453 -962 l 1
EndSplineSet
EndChar

StartChar: uni27E8.big5
Encoding: 138 -1 138
Width: 580
Flags: HW
VStem: 391 98<-1282.29 -1261.69 1861.69 1882.29>
LayerCount: 2
Fore
SplineSet
489 -1281 m 1
 391 -1299 l 1
 91 300 l 1
 391 1899 l 1
 489 1881 l 1
 189 300 l 1
 489 -1281 l 1
EndSplineSet
EndChar

StartChar: uni27E9
Encoding: 139 10217 139
Width: 460
Flags: HW
VStem: 93 274
LayerCount: 2
Fore
SplineSet
187 -246 m 1
 93 -214 l 1
 273 300 l 1
 93 814 l 1
 187 846 l 1
 367 300 l 1
 187 -246 l 1
EndSplineSet
EndChar

StartChar: uni27E9.big1
Encoding: 140 -1 140
Width: 472
Flags: HW
VStem: 92 288
LayerCount: 2
Fore
SplineSet
188 -350 m 1
 92 -322 l 1
 284 300 l 1
 92 922 l 1
 188 950 l 1
 380 300 l 1
 188 -350 l 1
EndSplineSet
EndChar

StartChar: uni27E9.big2
Encoding: 141 -1 141
Width: 490
Flags: HW
VStem: 92 306
LayerCount: 2
Fore
SplineSet
188 -508 m 1
 92 -482 l 1
 302 300 l 1
 92 1082 l 1
 188 1108 l 1
 398 300 l 1
 188 -508 l 1
EndSplineSet
EndChar

StartChar: uni27E9.big3
Encoding: 142 -1 142
Width: 508
Flags: HW
VStem: 91 326
LayerCount: 2
Fore
SplineSet
189 -666 m 1
 91 -642 l 1
 319 300 l 1
 91 1242 l 1
 189 1266 l 1
 417 300 l 1
 189 -666 l 1
EndSplineSet
EndChar

StartChar: uni27E9.big4
Encoding: 143 -1 143
Width: 544
Flags: HW
LayerCount: 2
Fore
SplineSet
189 -982 m 1
 91 -962 l 1
 355 300 l 1
 91 1562 l 1
 189 1582 l 1
 453 300 l 1
 189 -982 l 1
EndSplineSet
EndChar

StartChar: uni27E9.big5
Encoding: 144 -1 144
Width: 580
Flags: HW
LayerCount: 2
Fore
SplineSet
189 -1299 m 1
 91 -1281 l 1
 391 300 l 1
 91 1881 l 1
 189 1899 l 1
 489 300 l 1
 189 -1299 l 1
EndSplineSet
EndChar

StartChar: uni27EA
Encoding: 145 10218 145
Width: 680
Flags: HW
LayerCount: 2
Fore
SplineSet
338 -216 m 1
 242 -244 l 1
 92 300 l 1
 242 844 l 1
 338 816 l 1
 188 300 l 1
 338 -216 l 1
588 -216 m 1
 492 -244 l 1
 342 300 l 1
 492 844 l 1
 588 816 l 1
 438 300 l 1
 588 -216 l 1
EndSplineSet
EndChar

StartChar: uni27EA.big1
Encoding: 146 -1 146
Width: 692
Flags: HW
LayerCount: 2
Fore
SplineSet
350 -324 m 1
 254 -348 l 1
 92 300 l 1
 254 948 l 1
 350 924 l 1
 188 300 l 1
 350 -324 l 1
600 -324 m 1
 504 -348 l 1
 342 300 l 1
 504 948 l 1
 600 924 l 1
 438 300 l 1
 600 -324 l 1
EndSplineSet
EndChar

StartChar: uni27EA.big2
Encoding: 147 -1 147
Width: 710
Flags: HW
LayerCount: 2
Fore
SplineSet
369 -484 m 1
 271 -506 l 1
 91 300 l 1
 271 1106 l 1
 369 1084 l 1
 189 300 l 1
 369 -484 l 1
619 -484 m 1
 521 -506 l 1
 341 300 l 1
 521 1106 l 1
 619 1084 l 1
 439 300 l 1
 619 -484 l 1
EndSplineSet
EndChar

StartChar: uni27EA.big3
Encoding: 148 -1 148
Width: 728
Flags: HW
LayerCount: 2
Fore
SplineSet
387 -644 m 1
 289 -664 l 1
 91 300 l 1
 289 1264 l 1
 387 1244 l 1
 189 300 l 1
 387 -644 l 1
637 -644 m 1
 539 -664 l 1
 341 300 l 1
 539 1264 l 1
 637 1244 l 1
 439 300 l 1
 637 -644 l 1
EndSplineSet
EndChar

StartChar: uni27EA.big4
Encoding: 149 -1 149
Width: 764
Flags: HW
VStem: 325 98<-964.286 -942.679 1542.68 1564.29> 575 98<-964.286 -942.679 1542.68 1564.29>
LayerCount: 2
Fore
SplineSet
423 -963 m 1
 325 -981 l 1
 91 300 l 1
 325 1581 l 1
 423 1563 l 1
 189 300 l 1
 423 -963 l 1
673 -963 m 1
 575 -981 l 1
 341 300 l 1
 575 1581 l 1
 673 1563 l 1
 439 300 l 1
 673 -963 l 1
EndSplineSet
EndChar

StartChar: uni27EA.big5
Encoding: 150 -1 150
Width: 800
Flags: HW
VStem: 361 98<-1283.14 -1256.57 1856.57 1883.14> 611 98<-1283.14 -1256.57 1856.57 1883.14>
LayerCount: 2
Fore
SplineSet
459 -1282 m 1
 361 -1298 l 1
 91 300 l 1
 361 1898 l 1
 459 1882 l 1
 189 300 l 1
 459 -1282 l 1
709 -1282 m 1
 611 -1298 l 1
 341 300 l 1
 611 1898 l 1
 709 1882 l 1
 439 300 l 1
 709 -1282 l 1
EndSplineSet
EndChar

StartChar: uni27EB
Encoding: 151 10219 151
Width: 680
Flags: HW
LayerCount: 2
Fore
SplineSet
188 -244 m 1
 92 -216 l 1
 242 300 l 1
 92 816 l 1
 188 844 l 1
 338 300 l 1
 188 -244 l 1
438 -244 m 1
 342 -216 l 1
 492 300 l 1
 342 816 l 1
 438 844 l 1
 588 300 l 1
 438 -244 l 1
EndSplineSet
EndChar

StartChar: uni27EB.big1
Encoding: 152 -1 152
Width: 692
Flags: HW
LayerCount: 2
Fore
SplineSet
188 -348 m 1
 92 -324 l 1
 254 300 l 1
 92 924 l 1
 188 948 l 1
 350 300 l 1
 188 -348 l 1
438 -348 m 1
 342 -324 l 1
 504 300 l 1
 342 924 l 1
 438 948 l 1
 600 300 l 1
 438 -348 l 1
EndSplineSet
EndChar

StartChar: uni27EB.big2
Encoding: 153 -1 153
Width: 710
Flags: HW
LayerCount: 2
Fore
SplineSet
189 -506 m 1
 91 -484 l 1
 271 300 l 1
 91 1084 l 1
 189 1106 l 1
 369 300 l 1
 189 -506 l 1
439 -506 m 1
 341 -484 l 1
 521 300 l 1
 341 1084 l 1
 439 1106 l 1
 619 300 l 1
 439 -506 l 1
EndSplineSet
EndChar

StartChar: uni27EB.big3
Encoding: 154 -1 154
Width: 728
Flags: HW
LayerCount: 2
Fore
SplineSet
189 -664 m 1
 91 -644 l 1
 289 300 l 1
 91 1244 l 1
 189 1264 l 1
 387 300 l 1
 189 -664 l 1
439 -664 m 1
 341 -644 l 1
 539 300 l 1
 341 1244 l 1
 439 1264 l 1
 637 300 l 1
 439 -664 l 1
EndSplineSet
EndChar

StartChar: uni27EB.big4
Encoding: 155 -1 155
Width: 764
Flags: HW
LayerCount: 2
Fore
SplineSet
189 -981 m 1
 91 -963 l 1
 325 300 l 1
 91 1563 l 1
 189 1581 l 1
 423 300 l 1
 189 -981 l 1
439 -981 m 1
 341 -963 l 1
 575 300 l 1
 341 1563 l 1
 439 1581 l 1
 673 300 l 1
 439 -981 l 1
EndSplineSet
EndChar

StartChar: uni27EB.big5
Encoding: 156 -1 156
Width: 800
Flags: HW
LayerCount: 2
Fore
SplineSet
189 -1298 m 1
 91 -1282 l 1
 361 300 l 1
 91 1882 l 1
 189 1898 l 1
 459 300 l 1
 189 -1298 l 1
439 -1298 m 1
 341 -1282 l 1
 611 300 l 1
 341 1882 l 1
 439 1898 l 1
 709 300 l 1
 439 -1298 l 1
EndSplineSet
EndChar

StartChar: uni2991
Encoding: 157 10641 157
Width: 460
Flags: HW
HStem: 221 159<253.472 327.319>
VStem: 211 159<263.245 337.574>
LayerCount: 2
Fore
SplineSet
367 -214 m 1
 273 -246 l 1
 93 300 l 1
 273 846 l 1
 367 814 l 1
 187 300 l 1
 367 -214 l 1
291 221 m 0
 267 221 211 277 211 300 c 0
 211 316 229 334 243 348 c 0
 257 362 275 380 291 380 c 0
 306 380 324 362 338 348 c 0
 352 334 370 316 370 300 c 0
 370 277 313 221 291 221 c 0
EndSplineSet
EndChar

StartChar: uni2991.big1
Encoding: 158 -1 158
Width: 472
Flags: HW
HStem: 221 159<265.472 339.319>
VStem: 223 159<263.245 337.574>
LayerCount: 2
Fore
SplineSet
380 -322 m 1
 284 -350 l 1
 92 300 l 1
 284 950 l 1
 380 922 l 1
 188 300 l 1
 380 -322 l 1
303 221 m 0
 279 221 223 277 223 300 c 0
 223 316 241 334 255 348 c 0
 269 362 287 380 303 380 c 0
 318 380 336 362 350 348 c 0
 364 334 382 316 382 300 c 0
 382 277 325 221 303 221 c 0
EndSplineSet
EndChar

StartChar: uni2991.big2
Encoding: 159 -1 159
Width: 490
Flags: HW
HStem: 221 159<283.472 357.319>
VStem: 241 159<263.245 337.574>
LayerCount: 2
Fore
SplineSet
398 -482 m 1
 302 -508 l 1
 92 300 l 1
 302 1108 l 1
 398 1082 l 1
 188 300 l 1
 398 -482 l 1
321 221 m 0
 297 221 241 277 241 300 c 0
 241 316 259 334 273 348 c 0
 287 362 305 380 321 380 c 0
 336 380 354 362 368 348 c 0
 382 334 400 316 400 300 c 0
 400 277 343 221 321 221 c 0
EndSplineSet
EndChar

StartChar: uni2991.big3
Encoding: 160 -1 160
Width: 508
Flags: HW
HStem: 221 159<301.472 375.319>
VStem: 259 159<263.245 337.574>
LayerCount: 2
Fore
SplineSet
417 -642 m 1
 319 -666 l 1
 91 300 l 1
 319 1266 l 1
 417 1242 l 1
 189 300 l 1
 417 -642 l 1
339 221 m 0
 315 221 259 277 259 300 c 0
 259 316 277 334 291 348 c 0
 305 362 323 380 339 380 c 0
 354 380 372 362 386 348 c 0
 400 334 418 316 418 300 c 0
 418 277 361 221 339 221 c 0
EndSplineSet
EndChar

StartChar: uni2991.big4
Encoding: 161 -1 161
Width: 544
Flags: HW
HStem: 221 159<337.472 411.319>
VStem: 295 159<263.245 337.574>
LayerCount: 2
Fore
SplineSet
453 -962 m 1
 355 -982 l 1
 91 300 l 1
 355 1582 l 1
 453 1562 l 1
 189 300 l 1
 453 -962 l 1
375 221 m 0
 351 221 295 277 295 300 c 0
 295 316 313 334 327 348 c 0
 341 362 359 380 375 380 c 0
 390 380 408 362 422 348 c 0
 436 334 454 316 454 300 c 0
 454 277 397 221 375 221 c 0
EndSplineSet
EndChar

StartChar: uni2991.big5
Encoding: 162 -1 162
Width: 580
Flags: HW
HStem: 221 159<373.472 447.319>
VStem: 391 98<-1282.29 -1261.69 1861.69 1882.29>
LayerCount: 2
Fore
SplineSet
489 -1281 m 1
 391 -1299 l 1
 91 300 l 1
 391 1899 l 1
 489 1881 l 1
 189 300 l 1
 489 -1281 l 1
411 221 m 0
 387 221 331 277 331 300 c 0
 331 316 349 334 363 348 c 0
 377 362 395 380 411 380 c 0
 426 380 444 362 458 348 c 0
 472 334 490 316 490 300 c 0
 490 277 433 221 411 221 c 0
EndSplineSet
EndChar

StartChar: uni2992
Encoding: 163 10642 163
Width: 460
Flags: HW
HStem: 221 159<132.472 206.319>
VStem: 90 159<263.245 337.574>
LayerCount: 2
Fore
SplineSet
187 -246 m 1
 93 -214 l 1
 273 300 l 1
 93 814 l 1
 187 846 l 1
 367 300 l 1
 187 -246 l 1
170 221 m 0
 146 221 90 277 90 300 c 0
 90 316 108 334 122 348 c 0
 136 362 154 380 170 380 c 0
 185 380 203 362 217 348 c 0
 231 334 249 316 249 300 c 0
 249 277 192 221 170 221 c 0
EndSplineSet
EndChar

StartChar: uni2992.big1
Encoding: 164 -1 164
Width: 472
Flags: HW
HStem: 221 159<132.472 206.319>
VStem: 90 159<263.245 337.574>
LayerCount: 2
Fore
SplineSet
188 -350 m 1
 92 -322 l 1
 284 300 l 1
 92 922 l 1
 188 950 l 1
 380 300 l 1
 188 -350 l 1
170 221 m 0
 146 221 90 277 90 300 c 0
 90 316 108 334 122 348 c 0
 136 362 154 380 170 380 c 0
 185 380 203 362 217 348 c 0
 231 334 249 316 249 300 c 0
 249 277 192 221 170 221 c 0
EndSplineSet
EndChar

StartChar: uni2992.big2
Encoding: 165 -1 165
Width: 490
Flags: HW
HStem: 221 159<132.472 206.319>
VStem: 90 159<263.245 337.574>
LayerCount: 2
Fore
SplineSet
188 -508 m 1
 92 -482 l 1
 302 300 l 1
 92 1082 l 1
 188 1108 l 1
 398 300 l 1
 188 -508 l 1
170 221 m 0
 146 221 90 277 90 300 c 0
 90 316 108 334 122 348 c 0
 136 362 154 380 170 380 c 0
 185 380 203 362 217 348 c 0
 231 334 249 316 249 300 c 0
 249 277 192 221 170 221 c 0
EndSplineSet
EndChar

StartChar: uni2992.big3
Encoding: 166 -1 166
Width: 508
Flags: HW
HStem: 221 159<132.472 206.319>
VStem: 90 159<263.245 337.574>
LayerCount: 2
Fore
SplineSet
189 -666 m 1
 91 -642 l 1
 319 300 l 1
 91 1242 l 1
 189 1266 l 1
 417 300 l 1
 189 -666 l 1
170 221 m 0
 146 221 90 277 90 300 c 0
 90 316 108 334 122 348 c 0
 136 362 154 380 170 380 c 0
 185 380 203 362 217 348 c 0
 231 334 249 316 249 300 c 0
 249 277 192 221 170 221 c 0
EndSplineSet
EndChar

StartChar: uni2992.big4
Encoding: 167 -1 167
Width: 544
Flags: HW
HStem: 221 159<132.472 206.319>
VStem: 90 159<263.245 337.574>
LayerCount: 2
Fore
SplineSet
189 -982 m 1
 91 -962 l 1
 355 300 l 1
 91 1562 l 1
 189 1582 l 1
 453 300 l 1
 189 -982 l 1
170 221 m 0
 146 221 90 277 90 300 c 0
 90 316 108 334 122 348 c 0
 136 362 154 380 170 380 c 0
 185 380 203 362 217 348 c 0
 231 334 249 316 249 300 c 0
 249 277 192 221 170 221 c 0
EndSplineSet
EndChar

StartChar: uni2992.big5
Encoding: 168 -1 168
Width: 580
Flags: HW
HStem: 221 159<132.472 206.319>
VStem: 90 159<263.245 337.574>
LayerCount: 2
Fore
SplineSet
189 -1299 m 1
 91 -1281 l 1
 391 300 l 1
 91 1881 l 1
 189 1899 l 1
 489 300 l 1
 189 -1299 l 1
170 221 m 0
 146 221 90 277 90 300 c 0
 90 316 108 334 122 348 c 0
 136 362 154 380 170 380 c 0
 185 380 203 362 217 348 c 0
 231 334 249 316 249 300 c 0
 249 277 192 221 170 221 c 0
EndSplineSet
EndChar

StartChar: slash
Encoding: 169 47 169
Width: 550
Flags: HW
LayerCount: 2
Fore
SplineSet
188 -242 m 1
 92 -218 l 1
 362 842 l 1
 458 818 l 1
 188 -242 l 1
EndSplineSet
EndChar

StartChar: slash.big1
Encoding: 170 -1 170
Width: 622
Flags: HW
LayerCount: 2
Fore
SplineSet
188 -349 m 1
 92 -323 l 1
 434 949 l 1
 530 923 l 1
 188 -349 l 1
EndSplineSet
EndChar

StartChar: slash.big2
Encoding: 171 -1 171
Width: 730
Flags: HW
LayerCount: 2
Fore
SplineSet
188 -509 m 1
 92 -481 l 1
 542 1109 l 1
 638 1081 l 1
 188 -509 l 1
EndSplineSet
EndChar

StartChar: slash.big3
Encoding: 172 -1 172
Width: 838
Flags: HW
LayerCount: 2
Fore
SplineSet
188 -668 m 1
 92 -640 l 1
 650 1268 l 1
 746 1240 l 1
 188 -668 l 1
EndSplineSet
EndChar

StartChar: slash.big4
Encoding: 173 -1 173
Width: 1054
Flags: HW
LayerCount: 2
Fore
SplineSet
188 -987 m 1
 92 -957 l 1
 866 1587 l 1
 962 1557 l 1
 188 -987 l 1
EndSplineSet
EndChar

StartChar: slash.big5
Encoding: 174 -1 174
Width: 1270
Flags: HW
LayerCount: 2
Fore
SplineSet
188 -1305 m 1
 92 -1275 l 1
 1082 1905 l 1
 1178 1875 l 1
 188 -1305 l 1
EndSplineSet
EndChar

StartChar: backslash
Encoding: 175 92 175
Width: 550
Flags: HW
LayerCount: 2
Fore
SplineSet
458 -218 m 1
 362 -242 l 1
 92 818 l 1
 188 842 l 1
 458 -218 l 1
EndSplineSet
EndChar

StartChar: backslash.big1
Encoding: 176 -1 176
Width: 622
Flags: HW
LayerCount: 2
Fore
SplineSet
530 -323 m 1
 434 -349 l 1
 92 923 l 1
 188 949 l 1
 530 -323 l 1
EndSplineSet
EndChar

StartChar: backslash.big2
Encoding: 177 -1 177
Width: 730
Flags: HW
LayerCount: 2
Fore
SplineSet
638 -481 m 1
 542 -509 l 1
 92 1081 l 1
 188 1109 l 1
 638 -481 l 1
EndSplineSet
EndChar

StartChar: backslash.big3
Encoding: 178 -1 178
Width: 838
Flags: HW
LayerCount: 2
Fore
SplineSet
746 -640 m 1
 650 -668 l 1
 92 1240 l 1
 188 1268 l 1
 746 -640 l 1
EndSplineSet
EndChar

StartChar: backslash.big4
Encoding: 179 -1 179
Width: 1054
Flags: HW
LayerCount: 2
Fore
SplineSet
962 -957 m 1
 866 -987 l 1
 92 1557 l 1
 188 1587 l 1
 962 -957 l 1
EndSplineSet
EndChar

StartChar: backslash.big5
Encoding: 180 -1 180
Width: 1270
Flags: HW
LayerCount: 2
Fore
SplineSet
1178 -1275 m 1
 1082 -1305 l 1
 92 1875 l 1
 188 1905 l 1
 1178 -1275 l 1
EndSplineSet
EndChar

StartChar: uni2223.short
Encoding: 181 58113 181
Width: 400
Flags: HW
VStem: 150 100<35 565>
LayerCount: 2
Fore
SplineSet
150 565 m 1
 250 565 l 1
 250 35 l 1
 150 35 l 1
 150 565 l 1
EndSplineSet
EndChar

StartChar: uni2223
Encoding: 182 8739 182
Width: 400
Flags: HW
HStem: -230 21G<150 250>
VStem: 150 100<-230 830>
LayerCount: 2
Fore
SplineSet
150 830 m 1
 250 830 l 1
 250 -230 l 1
 150 -230 l 1
 150 830 l 1
EndSplineSet
EndChar

StartChar: uni2223.big1
Encoding: 183 -1 183
Width: 400
Flags: HW
VStem: 150 100<-336 936>
LayerCount: 2
Fore
SplineSet
150 936 m 1
 250 936 l 1
 250 -336 l 1
 150 -336 l 1
 150 936 l 1
EndSplineSet
EndChar

StartChar: uni2224.short
Encoding: 184 58026 184
Width: 520
Flags: HW
VStem: 210 100<35 219 381 565>
LayerCount: 2
Fore
SplineSet
396 431 m 1
 441 353 l 1
 310 277 l 1
 310 35 l 1
 210 35 l 1
 210 219 l 1
 124 169 l 1
 79 247 l 1
 210 323 l 1
 210 565 l 1
 310 565 l 1
 310 381 l 1
 396 431 l 1
EndSplineSet
EndChar

StartChar: uni2224
Encoding: 185 8740 185
Width: 580
Flags: HW
HStem: -230 21G<240 340>
VStem: 240 100<-230 186 414 830>
LayerCount: 2
Fore
SplineSet
440 514 m 1
 504 450 l 1
 340 286 l 1
 340 -230 l 1
 240 -230 l 1
 240 186 l 1
 140 86 l 1
 76 150 l 1
 240 314 l 1
 240 830 l 1
 340 830 l 1
 340 414 l 1
 440 514 l 1
EndSplineSet
EndChar

StartChar: uni2224.big1
Encoding: 186 -1 186
Width: 580
Flags: HW
VStem: 240 100<-336 186 414 936>
LayerCount: 2
Fore
SplineSet
440 514 m 1
 504 450 l 1
 340 286 l 1
 340 -336 l 1
 240 -336 l 1
 240 186 l 1
 140 86 l 1
 76 150 l 1
 240 314 l 1
 240 936 l 1
 340 936 l 1
 340 414 l 1
 440 514 l 1
EndSplineSet
EndChar

StartChar: sym0A8
Encoding: 187 -1 187
Width: 400
Flags: HW
VStem: 150 100<91 509>
LayerCount: 2
Fore
SplineSet
150 509 m 1
 250 509 l 1
 250 91 l 1
 150 91 l 1
 150 509 l 1
EndSplineSet
EndChar

StartChar: uni2225.short
Encoding: 188 58114 188
Width: 680
Flags: HW
VStem: 150 100<35 565> 430 100<35 565>
LayerCount: 2
Fore
SplineSet
150 565 m 1
 250 565 l 1
 250 35 l 1
 150 35 l 1
 150 565 l 1
430 565 m 1
 530 565 l 1
 530 35 l 1
 430 35 l 1
 430 565 l 1
EndSplineSet
EndChar

StartChar: uni2225
Encoding: 189 8741 189
Width: 680
Flags: HW
HStem: -230 21G<150 250 430 530>
VStem: 150 100<-230 830> 430 100<-230 830>
LayerCount: 2
Fore
SplineSet
150 830 m 1
 250 830 l 1
 250 -230 l 1
 150 -230 l 1
 150 830 l 1
430 830 m 1
 530 830 l 1
 530 -230 l 1
 430 -230 l 1
 430 830 l 1
EndSplineSet
EndChar

StartChar: uni2225.big1
Encoding: 190 -1 190
Width: 680
Flags: HW
VStem: 150 100<-336 936> 430 100<-336 936>
LayerCount: 2
Fore
SplineSet
150 936 m 1
 250 936 l 1
 250 -336 l 1
 150 -336 l 1
 150 936 l 1
430 936 m 1
 530 936 l 1
 530 -336 l 1
 430 -336 l 1
 430 936 l 1
EndSplineSet
EndChar

StartChar: uni2226.short
Encoding: 191 58027 191
Width: 800
Flags: HW
VStem: 210 100<35 138 300 565> 490 100<35 300 462 565>
LayerCount: 2
Fore
SplineSet
676 512 m 1
 721 434 l 1
 590 358 l 1
 590 35 l 1
 490 35 l 1
 490 300 l 1
 310 196 l 1
 310 35 l 1
 210 35 l 1
 210 138 l 1
 124 88 l 1
 79 166 l 1
 210 242 l 1
 210 565 l 1
 310 565 l 1
 310 300 l 1
 490 404 l 1
 490 565 l 1
 590 565 l 1
 590 462 l 1
 676 512 l 1
EndSplineSet
EndChar

StartChar: uni2226
Encoding: 192 8742 192
Width: 860
Flags: HW
HStem: -230 21G<240 340 520 620>
VStem: 240 100<-230 46 274 830> 520 100<-230 326 554 830>
LayerCount: 2
Fore
SplineSet
720 654 m 1
 784 590 l 1
 620 426 l 1
 620 -230 l 1
 520 -230 l 1
 520 326 l 1
 340 146 l 1
 340 -230 l 1
 240 -230 l 1
 240 46 l 1
 140 -54 l 1
 76 10 l 1
 240 174 l 1
 240 830 l 1
 340 830 l 1
 340 274 l 1
 520 454 l 1
 520 830 l 1
 620 830 l 1
 620 554 l 1
 720 654 l 1
EndSplineSet
EndChar

StartChar: uni2226.big1
Encoding: 193 -1 193
Width: 860
Flags: HW
VStem: 240 100<-336 46 274 936> 520 100<-336 326 554 936>
LayerCount: 2
Fore
SplineSet
720 654 m 1
 784 590 l 1
 620 426 l 1
 620 -336 l 1
 520 -336 l 1
 520 326 l 1
 340 146 l 1
 340 -336 l 1
 240 -336 l 1
 240 46 l 1
 140 -54 l 1
 76 10 l 1
 240 174 l 1
 240 936 l 1
 340 936 l 1
 340 274 l 1
 520 454 l 1
 520 936 l 1
 620 936 l 1
 620 554 l 1
 720 654 l 1
EndSplineSet
EndChar

StartChar: sym0A9
Encoding: 194 -1 194
Width: 680
Flags: HW
VStem: 150 100<91 509> 430 100<91 509>
LayerCount: 2
Fore
SplineSet
150 509 m 1
 250 509 l 1
 250 91 l 1
 150 91 l 1
 150 509 l 1
430 509 m 1
 530 509 l 1
 530 91 l 1
 430 91 l 1
 430 509 l 1
EndSplineSet
EndChar

StartChar: uni2980
Encoding: 195 10624 195
Width: 960
Flags: HW
HStem: -230 21G<150 250 430 530 710 810>
VStem: 150 100<-230 830> 430 100<-230 830> 710 100<-230 830>
CounterMasks: 1 70
LayerCount: 2
Fore
SplineSet
150 830 m 1
 250 830 l 1
 250 -230 l 1
 150 -230 l 1
 150 830 l 1
430 830 m 1
 530 830 l 1
 530 -230 l 1
 430 -230 l 1
 430 830 l 1
710 830 m 1
 810 830 l 1
 810 -230 l 1
 710 -230 l 1
 710 830 l 1
EndSplineSet
EndChar

StartChar: uni2980.big1
Encoding: 196 -1 196
Width: 960
Flags: HW
VStem: 150 100<-336 936> 430 100<-336 936> 710 100<-336 936>
CounterMasks: 1 e0
LayerCount: 2
Fore
SplineSet
150 936 m 1
 250 936 l 1
 250 -336 l 1
 150 -336 l 1
 150 936 l 1
430 936 m 1
 530 936 l 1
 530 -336 l 1
 430 -336 l 1
 430 936 l 1
710 936 m 1
 810 936 l 1
 810 -336 l 1
 710 -336 l 1
 710 936 l 1
EndSplineSet
EndChar

StartChar: sym0AA
Encoding: 197 -1 197
Width: 960
Flags: HW
HStem: 91 418<150 250 430 530 710 810>
VStem: 150 100<91 509> 430 100<91 509> 710 100<91 509>
CounterMasks: 1 70
LayerCount: 2
Fore
SplineSet
150 509 m 1
 250 509 l 1
 250 91 l 1
 150 91 l 1
 150 509 l 1
430 509 m 1
 530 509 l 1
 530 91 l 1
 430 91 l 1
 430 509 l 1
710 509 m 1
 810 509 l 1
 810 91 l 1
 710 91 l 1
 710 509 l 1
EndSplineSet
EndChar

StartChar: arrowup.short
Encoding: 198 -1 198
Width: 580
Flags: HW
VStem: 240 100<-18 447>
LayerCount: 2
Fore
SplineSet
290 639 m 1
 485 444 l 1
 414 373 l 1
 340 447 l 1
 340 -18 l 1
 240 -18 l 1
 240 447 l 1
 166 373 l 1
 95 444 l 1
 290 639 l 1
EndSplineSet
EndChar

StartChar: arrowdown.short
Encoding: 199 -1 199
Width: 580
Flags: HW
VStem: 240 100<153 668>
LayerCount: 2
Fore
SplineSet
290 -39 m 1
 95 156 l 1
 166 227 l 1
 240 153 l 1
 240 668 l 1
 340 668 l 1
 340 153 l 1
 414 227 l 1
 485 156 l 1
 290 -39 l 1
EndSplineSet
EndChar

StartChar: sym0AB
Encoding: 200 -1 200
Width: 580
Flags: HW
VStem: 240 100<91 509>
LayerCount: 2
Fore
SplineSet
240 509 m 1
 340 509 l 1
 340 91 l 1
 240 91 l 1
 240 509 l 1
EndSplineSet
EndChar

StartChar: arrowdblup.short
Encoding: 201 -1 201
Width: 700
Flags: HW
VStem: 201 100<-68 349> 400 100<-68 348>
LayerCount: 2
Fore
SplineSet
350 639 m 1
 592 396 l 1
 522 326 l 1
 500 348 l 1
 500 -68 l 1
 400 -68 l 1
 400 447 l 1
 350 497 l 1
 301 448 l 1
 301 -68 l 1
 201 -68 l 1
 201 349 l 1
 178 326 l 1
 108 396 l 1
 350 639 l 1
EndSplineSet
EndChar

StartChar: arrowdbldown.short
Encoding: 202 -1 202
Width: 700
Flags: HW
VStem: 201 100<251 668> 400 100<252 668>
LayerCount: 2
Fore
SplineSet
350 -39 m 1
 108 204 l 1
 178 274 l 1
 201 251 l 1
 201 668 l 1
 301 668 l 1
 301 152 l 1
 350 103 l 1
 400 153 l 1
 400 668 l 1
 500 668 l 1
 500 252 l 1
 522 274 l 1
 592 204 l 1
 350 -39 l 1
EndSplineSet
EndChar

StartChar: sym0AC
Encoding: 203 -1 203
Width: 700
Flags: HW
VStem: 201 100<91 509> 400 100<91 509>
LayerCount: 2
Fore
SplineSet
201 509 m 1
 301 509 l 1
 301 91 l 1
 201 91 l 1
 201 509 l 1
400 509 m 1
 500 509 l 1
 500 91 l 1
 400 91 l 1
 400 509 l 1
EndSplineSet
EndChar

StartChar: sym0AD
Encoding: 204 -1 204
Width: 265
Flags: HW
HStem: 250 100<172.755 315>
VStem: 0 83<77 156.781>
LayerCount: 2
Fore
SplineSet
0 77 m 1
 0 224 107 350 248 350 c 2
 315 350 l 1
 315 250 l 1
 248 250 l 2
 156 250 83 171 83 77 c 1
 0 77 l 1
EndSplineSet
EndChar

StartChar: sym0AF
Encoding: 205 -1 205
Width: 265
Flags: HW
HStem: 250 100<172.755 315>
VStem: 0 83<443.219 523>
LayerCount: 2
Fore
SplineSet
83 523 m 1
 83 429 156 350 248 350 c 2
 315 350 l 1
 315 250 l 1
 248 250 l 2
 107 250 0 376 0 523 c 1
 83 523 l 1
EndSplineSet
EndChar

StartChar: sym0AE
Encoding: 206 -1 206
Width: 265
Flags: HW
HStem: 250 100<-50 92.2454>
VStem: 182 83<77 156.781>
LayerCount: 2
Fore
SplineSet
182 77 m 1
 182 171 109 250 17 250 c 2
 -50 250 l 1
 -50 350 l 1
 17 350 l 2
 158 350 265 224 265 77 c 1
 182 77 l 1
EndSplineSet
EndChar

StartChar: sym0B0
Encoding: 207 -1 207
Width: 265
Flags: HW
HStem: 250 100<-50 92.2454>
VStem: 182 83<443.219 523>
LayerCount: 2
Fore
SplineSet
265 523 m 1
 265 376 158 250 17 250 c 2
 -50 250 l 1
 -50 350 l 1
 17 350 l 2
 109 350 182 429 182 523 c 1
 265 523 l 1
EndSplineSet
EndChar

StartChar: sym0B2
Encoding: 208 -1 208
Width: 530
Flags: HW
HStem: 250 100<-50 141.248 388.752 580>
VStem: 219 92<434.868 523>
LayerCount: 2
Fore
SplineSet
580 250 m 1
 463 250 l 2
 379 250 308 295 265 363 c 1
 222 295 151 250 67 250 c 2
 -50 250 l 1
 -50 350 l 1
 67 350 l 2
 155 350 219 431 219 523 c 1
 311 523 l 1
 311 431 375 350 463 350 c 2
 580 350 l 1
 580 250 l 1
EndSplineSet
EndChar

StartChar: sym0B3
Encoding: 209 -1 209
Width: 530
Flags: HW
HStem: 250 100<-50 141.248 388.752 580>
VStem: 219 92<77 165.132>
LayerCount: 2
Fore
SplineSet
-50 350 m 1
 67 350 l 2
 151 350 222 305 265 237 c 1
 308 305 379 350 463 350 c 2
 580 350 l 1
 580 250 l 1
 463 250 l 2
 375 250 311 169 311 77 c 1
 219 77 l 1
 219 169 155 250 67 250 c 2
 -50 250 l 1
 -50 350 l 1
EndSplineSet
EndChar

StartChar: sym0B1
Encoding: 210 -1 210
Width: 60
Flags: HW
HStem: 250 100<-50 110>
VStem: -50 160<250 350>
LayerCount: 2
Fore
SplineSet
-50 250 m 1
 -50 350 l 1
 110 350 l 1
 110 250 l 1
 -50 250 l 1
EndSplineSet
EndChar

StartChar: radical.tex
Encoding: 211 -1 211
Width: 790
Flags: HW
HStem: 0 64<790 840>
LayerCount: 2
Fore
SplineSet
48 -636 m 1
 26 -592 l 1
 251 -482 l 1
 403 -794 l 1
 707 64 l 1
 840 64 l 1
 840 0 l 1
 790 0 l 1
 441 -952 l 1
 351 -996 l 1
 151 -586 l 1
 48 -636 l 1
EndSplineSet
EndChar

StartChar: radical.tex.big1
Encoding: 212 -1 212
Width: 838
Flags: HW
HStem: 0 64<838 888>
LayerCount: 2
Fore
SplineSet
50 -731 m 1
 31 -685 l 1
 261 -588 l 1
 428 -983 l 1
 753 64 l 1
 888 64 l 1
 888 0 l 1
 838 0 l 1
 465 -1169 l 1
 372 -1208 l 1
 153 -688 l 1
 50 -731 l 1
EndSplineSet
EndChar

StartChar: radical.tex.big2
Encoding: 213 -1 213
Width: 910
Flags: HW
HStem: 0 64<910 960>
LayerCount: 2
Fore
SplineSet
58 -878 m 1
 42 -831 l 1
 277 -747 l 1
 464 -1271 l 1
 824 64 l 1
 960 64 l 1
 960 0 l 1
 910 0 l 1
 499 -1492 l 1
 404 -1526 l 1
 161 -841 l 1
 58 -878 l 1
EndSplineSet
EndChar

StartChar: radical.tex.big3
Encoding: 214 -1 214
Width: 982
Flags: HW
HStem: 0 64<982 1032>
LayerCount: 2
Fore
SplineSet
70 -1028 m 1
 55 -981 l 1
 293 -906 l 1
 498 -1562 l 1
 895 64 l 1
 1032 64 l 1
 1032 0 l 1
 982 0 l 1
 532 -1814 l 1
 436 -1844 l 1
 171 -996 l 1
 70 -1028 l 1
EndSplineSet
EndChar

StartChar: radical.tex.big4
Encoding: 215 -1 215
Width: 1126
Flags: HW
HStem: 0 64<1126 1176>
LayerCount: 2
Fore
SplineSet
96 -1335 m 1
 83 -1287 l 1
 325 -1224 l 1
 566 -2154 l 1
 1037 64 l 1
 1176 64 l 1
 1176 0 l 1
 1126 0 l 1
 597 -2455 l 1
 500 -2480 l 1
 197 -1309 l 1
 96 -1335 l 1
EndSplineSet
EndChar

StartChar: radical.tex.big5
Encoding: 216 -1 216
Width: 1270
Flags: HW
HStem: 0 64<1270 1320>
LayerCount: 2
Fore
SplineSet
124 -1646 m 1
 113 -1597 l 1
 357 -1542 l 1
 632 -2755 l 1
 1181 64 l 1
 1320 64 l 1
 1320 0 l 1
 1270 0 l 1
 662 -3094 l 1
 564 -3116 l 1
 226 -1623 l 1
 124 -1646 l 1
EndSplineSet
EndChar

StartChar: radical.tex.top
Encoding: 217 -1 217
Width: 1270
Flags: HW
HStem: 0 64<664 1302>
VStem: 564 100<-622 0>
LayerCount: 2
Fore
SplineSet
664 -622 m 1
 564 -622 l 1
 564 64 l 1
 1302 64 l 1
 1302 0 l 1
 664 0 l 1
 664 -622 l 1
EndSplineSet
EndChar

StartChar: uni23B7.tex
Encoding: 218 -1 218
Width: 1270
Flags: HW
VStem: 564 100<-1038 50>
LayerCount: 2
Fore
SplineSet
108 -788 m 1
 81 -746 l 1
 291 -611 l 1
 564 -1038 l 1
 564 50 l 1
 664 50 l 1
 664 -1208 l 1
 564 -1272 l 1
 212 -721 l 1
 108 -788 l 1
EndSplineSet
EndChar

StartChar: radical.ex
Encoding: 219 -1 219
Width: 1270
Flags: HW
VStem: 564 100<91 509>
LayerCount: 2
Fore
SplineSet
564 509 m 1
 664 509 l 1
 664 91 l 1
 564 91 l 1
 564 509 l 1
EndSplineSet
EndChar

StartChar: radical
Encoding: 220 8730 220
Width: 790
Flags: HW
HStem: -230 21G<341.244 391.909> 766 64<790 840>
LayerCount: 2
Fore
SplineSet
48 130 m 1
 26 174 l 1
 251 284 l 1
 403 -28 l 1
 707 830 l 1
 840 830 l 1
 840 766 l 1
 790 766 l 1
 441 -186 l 1
 351 -230 l 1
 151 180 l 1
 48 130 l 1
EndSplineSet
EndChar

StartChar: radical.big1
Encoding: 221 -1 221
Width: 838
Flags: HW
HStem: 872 64<838 888>
LayerCount: 2
Fore
SplineSet
50 141 m 1
 31 187 l 1
 261 284 l 1
 428 -111 l 1
 753 936 l 1
 888 936 l 1
 888 872 l 1
 838 872 l 1
 465 -297 l 1
 372 -336 l 1
 153 184 l 1
 50 141 l 1
EndSplineSet
EndChar

StartChar: radical.big2
Encoding: 222 -1 222
Width: 910
Flags: HW
HStem: 1031 64<910 960>
LayerCount: 2
Fore
SplineSet
58 153 m 1
 42 200 l 1
 277 284 l 1
 464 -240 l 1
 824 1095 l 1
 960 1095 l 1
 960 1031 l 1
 910 1031 l 1
 499 -461 l 1
 404 -495 l 1
 161 190 l 1
 58 153 l 1
EndSplineSet
EndChar

StartChar: radical.big3
Encoding: 223 -1 223
Width: 982
Flags: HW
HStem: 1190 64<982 1032>
LayerCount: 2
Fore
SplineSet
70 162 m 1
 55 209 l 1
 293 284 l 1
 498 -372 l 1
 895 1254 l 1
 1032 1254 l 1
 1032 1190 l 1
 982 1190 l 1
 532 -624 l 1
 436 -654 l 1
 171 194 l 1
 70 162 l 1
EndSplineSet
EndChar

StartChar: radical.big4
Encoding: 224 -1 224
Width: 1126
Flags: HW
HStem: 1508 64<1126 1176>
LayerCount: 2
Fore
SplineSet
96 173 m 1
 83 221 l 1
 325 284 l 1
 566 -646 l 1
 1037 1572 l 1
 1176 1572 l 1
 1176 1508 l 1
 1126 1508 l 1
 597 -947 l 1
 500 -972 l 1
 197 199 l 1
 96 173 l 1
EndSplineSet
EndChar

StartChar: radical.big5
Encoding: 225 -1 225
Width: 1270
Flags: HW
HStem: 1826 64<1270 1320>
LayerCount: 2
Fore
SplineSet
124 180 m 1
 113 229 l 1
 357 284 l 1
 632 -929 l 1
 1181 1890 l 1
 1320 1890 l 1
 1320 1826 l 1
 1270 1826 l 1
 662 -1268 l 1
 564 -1290 l 1
 226 203 l 1
 124 180 l 1
EndSplineSet
EndChar

StartChar: radical.top
Encoding: 226 -1 226
Width: 1270
Flags: HW
HStem: 572 64<664 1302>
VStem: 564 100<-50 572>
LayerCount: 2
Fore
SplineSet
664 -50 m 1
 564 -50 l 1
 564 636 l 1
 1302 636 l 1
 1302 572 l 1
 664 572 l 1
 664 -50 l 1
EndSplineSet
EndChar

StartChar: uni23B7
Encoding: 227 9143 227
Width: 1270
Flags: HW
HStem: 0 21G<551.223 595.25>
VStem: 564 100<234 1322>
LayerCount: 2
Fore
SplineSet
108 484 m 1
 81 526 l 1
 291 661 l 1
 564 234 l 1
 564 1322 l 1
 664 1322 l 1
 664 64 l 1
 564 0 l 1
 212 551 l 1
 108 484 l 1
EndSplineSet
EndChar
